<mxfile host="app.diagrams.net" modified="2023-03-10T13:58:20.560Z" agent="5.0 (Windows NT 10.0; Win64; x64) AppleWebKit/537.36 (KHTML, like Gecko) Chrome/110.0.0.0 Safari/537.36" etag="Xm8s3YNlofxWIhYGubk7" version="21.0.6" type="github">
  <diagram name="Page-1" id="2cc2dc42-3aac-f2a9-1cec-7a8b7cbee084">
    <mxGraphModel dx="1235" dy="596" grid="1" gridSize="10" guides="1" tooltips="1" connect="1" arrows="1" fold="1" page="1" pageScale="1" pageWidth="1169" pageHeight="1654" background="#ffffff" math="0" shadow="0">
      <root>
        <mxCell id="0" />
        <mxCell id="1" parent="0" />
        <mxCell id="UHwvVBWJmxD8mDtCLeHz-2" value="" style="shape=image;verticalLabelPosition=bottom;labelBackgroundColor=default;verticalAlign=top;aspect=fixed;imageAspect=0;image=data:image/png,iVBORw0KGgoAAAANSUhEUgAAB24AAABjCAYAAABT/iCmAAAAAXNSR0IArs4c6QAAAARnQU1BAACxjwv8YQUAAAAJcEhZcwAAFiUAABYlAUlSJPAAAAASdEVYdFNvZnR3YXJlAEdyZWVuc2hvdF5VCAUAAMaLSURBVHhe7f0JtCVHdeeN6r3+Xq9293vfa7fNINV4h6pbw71VJZXMIMygAdwMZjBmsCXADALcDfQHAgRyM9gg2YAbIUbbCAvUGAHWwCBoRGOBjSxAasywPnXjZ0YLGzdGGEkMGizixX/v2JkRkTtyznPy3Jtnrd/6545hR2SePKdK9dc+ecxvPPUZZmJiYmJiYmJiYmJiYmJiYmJiYmJiYmJiYmJiYmJifhxzzx27zRg4dvvio53XxMR4WJqYmNjk3ANsL0ebN2vq7HM27J6ojXb9cu4Otu0ux+bpyt1snk4gx8TERIKlXrj79uXFZ8ey/bNqZeG5ex12biVWNwX32LUYaHtvAufZMzFD7j4CtH31jbbuRAd2LgL690yINi/nbnbMRH/8fFfs32HGwt0GhNbYPiuW6yH7cnusi76mj7KWx8/1xbYylmqiza3Lkvl3NSiuuXho59WY43b3APKUoc2J0eb1yW7zs8fyWj97z13UNgrj9liwfXOodn5blp34B3ol3um1zZJ4fYqX7PvmkNhqEFf0B2uMGtnvxMTEZgamaJmOhap9Dq7b+XjSGtoDZOzavysx/nGb2LKtSwxzKYzzY45n0S+gbYoXOybs54Xe67GrJdg3tfnH6IfCwExpDXbMV9m07Kabhcyc9dVvr8E9MsU/bBfjRUHMRFLPXJxlzMA8mrSeTsyc3R11197RK8xGHE/aXQNgcI46xncxjp0WYhx7RDHMRpqTYBb9mwmYr910xeqK03YxYf8+hJy+GZnFFf2UD7rD7olU6C/O1oSx2Vqj/VfG9cD50z7t9QjPoeR87H5SysCkTekyGa9dlYCBWhovuWOnhRjHHo1jNja3OjBmRQU19gzUn3MmZ7PYQnkkXxxXzbfHpfN7iO0agXFr2xen4hZjhkZbtwHaeU2MnSU2cLug5h0b2OfExMTEhNCnKTlRDRs+vlk0P3zTbWKiH+QeHz/6/gU2bcsgc3QB0AzMrUhg0qbYuZXQ/zF8lvRjSEqesaPtfWJi/vhm3EQPwODcApA51RHtz4UmaDkXFTI/O6DlbIpmRrZBTMkhoDUyU7MDkqsn8j2661kwa4uo+wpgczVFYHx2ASbqXHGmXQUYt+ho59UKMjY3O4mKW64cTOvQFMzTRHzcDlQ64pi175goWb86dnnmfT0r1h+LdgXXm7Tmepr2Rd315qd2n3S95q+bha1ynlVUXYe+tBJ3nye1Fst2vGWRlXDnEp+bqi37a+8jMX9E/TBwSbdPcXUMM8Rp0M9xhhsfw8YR/+wym6jzibny0Iun/lCnfr29tN+CdgvufzkeY0xo5yXnsV03QjPs5z1T+k4oxgyMw1iFWfX3wM6BdQZk5mxKPbCvOCZgwu10ZpyiZfP7jLvCZuK80Y2kiTT3RCWnhbRFXEXV/Kp4VlTtxx/bCsnTBcqzNwdVro1i5NBU6LN/og/EvPWPN21Mf94JLeMobxvIJMvUmWZN4xEQm68Sx5rq7wPkIiOypVIeaGZaDqO0JoxNOW4cY7/IVVQB42QtX4WwHXOs4vwtuLf5Wrj2pHp57P6kTWIGJq2vFuoPTdy2wLgVFeYSb4OxGavQUz/WssdYT9PK+TPrXyJzVtO+gAlapqiqJU1RMb8PBT+Lyl4ycHdR+zH4R7dydNOsb8gATYF+u5fB0dZuAp2Ldg19iufeP9q6s0bb1xBoa/toc3JganZFX3diYmKm4LNYhjZnYssDQ2OiJtu7w+ZQF8RY6oZeaThL9H1NLDj2czJ67D71e1IIq2s1AhM3xY75oxmYjYHRNyTamj1D5mwVdi9VkElbgjZnnMg/oM+PfsxbyTN2tL03A6ZkF7ScMdq8Jmg5h0BbW9DGtwK5OrG3O9q+ekYzwyY6QKbkyNH2HaPN8xCTqgta3iZoORcVMj87oOVsChmCPeAbkH1Da2SmZksolz3nUopr+xTOV7me8ZwYdW8BzlRM4JufnSDDsARtTow2rzZLeSVpCRjXHW19QRs/e7Rz7xVnilaizRW08b2jVtw6AyqhbHCxom2IGBpUrKraHa6wTStTdz8JxbXzgGEQtGGcp3T+Snvnfkdh/YjB+t21wHvtxwXd4sz2/Vn2VPBjexy9P1Xv36btJ+Lr0zQe8fk16BfQlorL5mvtTftlDagQx7jXuyjeM6oWdcw13iGK/bWJ+ZyGI15PiYPxE2OAzNOEauNjyuZnWgMYRymtS1WelI4Ge706a13q5tN0Uah7Pl21irp5htQqauVZtlqC9Fcoql5TqhmMY+WeO4fVzMAdUGFYViv+MdnXYjsBM06OC9hx1M/zGYm792Mf9BxCUsFrD2K9H/nFPEVbuzjPjbg5udHWVmcL7zkd94d/nkLc3karuOfuvTQ2rTIupV3nVyvTdZ0a82uA8WlFrm5K2P12Usug+Wehu6qfxUtU5knPr6N1qZtvKK1Lp/n0Z1EC+92otgvSr+VtDOchowzq2rMYGmPn+Mel82v007GP1uZT1d8W2U+H/GICJ9X+fQrHrBYvlv6i8SkxlPMkqZjP+XndtGIc5qSVoPXKlHNm+yqo34/xHojRZ7l7dsyax9WQSTu0WmC+yrEfx6r1D8K2pahtiatjgeuXKlnWGv22PcONK1A238XZ/iR2/dlx1346ni++eSrPtA3VjR1Q2SBm4/bfHbubrv8onnFLZuPg8D/0Dw5MgIlKyJwZCdr+mqDljNHmzRLeB5tDaexYew9P1LlWVeh5J+aI+yyU4wzIeaLtfWKiI5XGajReQ53XFOQpgUyjiXrgelWhzWuIXpU5LrR9D4G2do4+Z+Zo90FjnPk6IGQoTtRjZz+Q2dgSNk9HwK75w/8AL9eGY21cOWwUTBQR89A3E7VxfcNrpdHm+OT7TaHPa0Ifa+jzcsSYLUOb1ydsNnYkyqmhzhsd9prXQpsraOObAcOuCm3erNH21Tvue78TWt6GiJmqsxqaaSnUuQ3Qcs6DgfdCBq39Mz+J/buaZj4GRDlVtHmNQI5FQNt7Dhur88YzNRPk5uqwaGvPlMxYHRJnXM4ZMW3TOGN1aLx94D04RszGuaoFVa+DY9cbWumcJmpx3C42uI51Ore4K0Pn74njdmI/OXE8EVJ1vbbG9cS9Y9V+v41ZYSqR2v2yAVpU7rdzRq7EjklHowSMy0VXNkbl2I/D9nQeHleMYy3r50q7Mh0eGFOiQty+CP1M+fUsmy99lf1iBsbm4NhiS6vz8+Kq/nmvX6efKb8vytVnxaPv2LJzYO0Dm+ueO1czRZWsH8+qvyuZ6dlWJwLIzC60i7HGBgKpxE4Xrt8q+kiFKC6dL3jjy2I/R2CwBe35WGmv7Hf5CS2mcaGpVyTPf087L4gJbU4Mj8W6pBI7re7XcsbYcer+BG1OCNZL48YtVejutdZKxm1HOJeev3IdmJ1auzDrftynaJP2OHbvSz7eOyYq5teK61A2f0YxHQ+LZqI2RcvbBC1nDMzbMu2LsnUyQ3VItche8nUt6B8AqcAtxDAky9QC075Miao8C6B0PlC0KcrApE3pCpu3Y4DMS6gWe+bmRDnbaqgF5mlKc4N3QHWVr1JZm9LBseuIeYvrcwz/w/Z8oX98HxgyVgcmNsomJsYFm0NptDlbFe36NEXLu3iwCTNysM/OLE9MFNHutwWFjRkdbbyGNrdXtg+Lb7JN1ECu2SKg7b9PtDVjtHlzQP1s1QYGq2KyblVg0M0ZzYhtApmvfbBrQsA/SgKtrx76P8ZPaCajPq5P2OjEWmX4+0qhzRP0tZtQvQbw96OhzfGxa1Wgz+sPMuN6QMvtk5t9Y8Ze81pocwVtfDN8YyyFNm/WaPvqHeWZs43R8jZETEudVTbRysAYdW4DtLzzYEx7mSeZKTp22JxNwQbpvHGGYgladewQaGvPFDI2u4Ec5Sjm5RzIq11LkHFDQmv5Fbc79X+snyk7nPlpj1Xts39g1PObmBgFmrkYI+O2uvZF3fXGrIuDbsgyOB9RHq/FOM6ZRzwxMnYA3EMJXZT+3ojz1leYQlU6C8TYmrRaCTEkx66WuufVVok5rl9HCfv552OnEseq9oOV2QKDUtOO/fd0x/Qs2ZbKwACdd9yNgvHaIr6nO563jgHt2bZseDmVOKlsok1aBO2Mb7AV5/WpTGjq6ci4lJZTdz8pZfTcITIupeWIOZvSgKzCNhFnFa7NYzFf2ypTkh+m5iJoFZV5cA9tFWVTc2jtSt11UloGTEw+xp9VVu2f334Mgy/oj8jn6xT6y/Lb48BYHIh4/XkRn++sY8I3SCWOdUb9YYWtH4tJ6x+HMZmnc9VlPi7V5cxYHVrnTbYfmKwtYt2s9dGN1C1LZhSPybi1BAbrEGCNGaCd28TEOAhNoomJemj30vjwTVoN/dzGBxluExN9Y/8e1A/I1Z68mi8FzKSJOsCoq0Kb1wQt51jR9t8n2pox2rzZo32umrKyOdjZHc0EXURgGHYFxum80fY1FtgUY7T+EP4H+LHjn5OGNidGm+dTPh4GW3FMU8KcKXxzbwj0vTVhNvvcOrDZtwBgr2VocwL0+2kzwgbe1oCqTMeO/fvHTJjlWmMmM0bHjm/WFskM1LmyXAnMyVmgrT1Tttl9dKRo1MYo5uWcUCtgZ01ZxS0/o1H+gduPh+3PjU88J1LTfvq3Ubw8mOKZpjF43qnWLmzZfne96H7Y5e6PLGadTX+0r4jk/h2Uq2J9f3xMnfxau1C7392j/NljCrGM8zTVvtn7qd0CFZrEQR4l/yL1C2gbc1wFnY9HMV6xmjOXWNn3xPyB8bnoSuwoUUKMWV/7MWwzauwDxtFQmmHX2xRq35vcrIvVUjdPSolUfqgwhn5L3fNqq0Rqfat18wypnXGm5Y7FVzYtu+r8OXbXHjItj7WwNovpZ2DdMUxDxKz1Y54PnSMwvpzJhn+gn1eMY1wXwlXYxnTJP6aYgcklKvjtVfnK52NsBrUL+fjy/NUxk+fL41iHpe3+JdZyDkbq2bV1NatsbalLHbXGOoHxKcdjjC3Yc1Ir8+Eecu2ExLGW9Af5vGM/prFAmZ/1Dd2P41mQWl9r1/q7oRm5Y4UMRfvnJesAsSVYD33S3zfITxrGqPYlpZ/C5kpYJo+5v0rT8+vEyEHG6JyV9gJFm6IMTNqUrrB5C2CiziVe5mMyL732LIZO1AbmrGgZx+GZthZSidHnP+tWkDjWWfUPCBm3bN7iuo2i4tY3VzcD2jlOTMwX/gf8iYmJMmCezhttXxPzggzFzcIO34htA3IMC5lPdq2JemhVnz7anKZoeceGtu8h0Nb20ebMHPtZ744zQBcczQTdsuxyRmNL2LgdBzBL5wr2EMGmWo42JqT4D/FjhA2uMvR5Pvq8nOJ4H4wJ+9uQ55on+t6aMLPzgPmaQhu/oIRm2khR9h0TmqYa+v3UDJtH1tJQ58we38AbEm3tumj52iCmZQptjo82pylaXh8y8mbBLNcaO5kxOmbYnE2RGahzZbkSrTp2CLS1ZwoZlt1g87UMZ9YmgJGpGpxzQK2Q7Rt7vkHFrWY8ZuxS2nyG7m/Itqbq1q89PtbE/Iyhr0+qH+1Cq5ir2VjR5mLCixegH6YljvEP8KxeLP3II7SJh87fVxzsk9viGMfZ+C0cq9cn1hr9OCYVFjG2pM5PbRedcX8B1x/HNM+SzS/EKy5mE3XWcYZtC+K+ydZLaFX/ojP09a0BzFStXei7n8xbhxrv0MxaAf1uvFUe3zCuCcxbzIEJxTpATOvYWNZrGDMwyjrGks/lbxxbxDCMlagxv4pU/nGpnI87PzW2BOcfqx1fFdvjuyMmDePi+DmpBdWi5SrjUopxMD6H1a7UWYdZDXWXxDX6cUyx0ziumm/bqPLVmz+XuA9gGu3aY4512jSGohpYi2NN9SOnqBDEdlwt7QjMVzoWjYn7vevXSCuACdBF6wFzaEiN9+P3O6Q/pdn4lNbn2FTsTMtjxbxMxTj2COOqfUItyfOsyq/sJxU74vk0rgoZ10WryMa7ClktJmycHUcxxpWAimY2HrvqcGT7lfNRNB9fd78JtfdZSrEWjlMq4yhXqcq4gdQCw3BIJeruJ6WWuutpulDYv4/w82cdfmyPfdMRbUHsHVOs9HM+WS/s75PwfHitMK7oh1qCnNFxPk5TS1W/PSZj1GmrmFghOMYxax47kxWxqui3+ZDbI/2M21hXyLztpNu7K3KRcZlSjCHdQmxbitqiONUPc1b6Y8M2OC5HM1LnghjJg+luIjNuYTaWQcbPAqDtvSlaXh9tTow2b9Zo+2oO/wT0IgNDhyBTZGJiYqzA1NkMZN85HdDyFtGq6uujretDpmYZdoz2HOGxUbxuRbR5PtqcpsAM6YqW10ebs5DssNd9C8Am4OID83JRgCFZCsZ0Qsk5B9TPlYc2ZxHh8xFztAO7OqLlDFi142YA1hkSbc2GkPk6A7S1e2e3GGlbHWcelaLN89HmNAQmVhnanBhtXt9o6zZFy7uIaOfWBC1njDbPgw3LLtg82rozRt9bDp2vMi/DuyZt0daN0eY1gU3Prti99IKWe0zsYZNvAWBTcLGBoZmbp/NC9jEsmXFbxg5gx84VuweYsF2g80jDxm0ZyzZPN9j8XAC26UZrAJm4EdGYu5UQj20DmaJdcabq0AQVt6gaLWUnKxmCI9a+6LpO1fxZaTeWc3Yutmom0cRis233ijnOQhrHu/U5C4k7l/j8gjies6jYz+umUALvi9AmtlSsA6MOx75x1yQuX7869g3cUasHXbdUXCNP6fyqmPK4SmVSXMOeY3sMI2PRldixAErAhG2vMPs0bdJfRdf59ZF8I1b73pUiY7rqnCGz0H4v0L1KWoy1eQKNc2NY8zmUK4rn1Z+dTwfw/dmHljMbw1LWGVo7s3uP/TtsfpzFHp36ZZ0EeqWmQlW/BesNqktcDclajDGmO5wPx6xt47QyvJYW181TpsxaUuvlSc/vR6vWr1Z+/+uuNz+FGVil3emen4xXS2wqSlyrX8k7a6r2TyjzMqS/i1qwbhoZZ9+fDoo8ZEzKsUZlv92PGJxtY2gKGZdiVv20745keeK8dWMcl0OmYyeFodhRa61ToRY6Hw+JYy3rb43dxz3suVTB581IHGs5XHmb1B2uMncHjuepdh/OYG2vnAc5dWWD1jd64zgwYu1/K3aKLTDxxhrjuC1Zzm3lqs1txDbd0BVgzJbrbjomc3VodeC8KytuAczAsaMbkM3Q8vpo1yZGmzdrtHNrzM7lxcf94/nExMTIsZ/XiXrA4OqKljfAvie+CVnAjpkYF2y2TMyMHTA/u8GG4uZAq3AdE7RP+76VAuO1K1reGaPerxHaPB9tzvhY6QfVbG2AljNAqdYcAqwzJNqaEZpROjbIkAW7J/oBhsoIgHlUhjYnRpvXN9q6TdByTrRHu8ZN0fLOGm1fMdo8QRvfkKJRW0Sb1wQyBbtiv//7AbnGTGgQtqV43s3QchaA8dmJ1Z7Qci8S2jn1j1ph6+MMTTY354m/l4HwTVoVZzp2RDUgx8Y2NjaTaNW2gjdOq7QV/HFtIVO0E7mhOjR5xe2SM24Dw27B4670vZ95x61g09OvXF3UuGAQTSw8Umma1F1SGbjYyHlUne/iI+dh1X5+p7gqZqMOx2217nowaVOaGbhyPMUVsb1u9j9mSIW6MfLguFTZzJDjRY0Xih0wYJ1KHOuA/TAjcTxPzXD7KSjMzLH0zwAYdfNWukdqaHWeBcB+PwYGapd4IPB8WTYMxdjc7HEJu2ekFegG5Pig6kooGSvFuDeyfE4bxRaKPeK4iqr5iC1czZlXVDaK43xKXDq/p7hsfVA1f5HinBHH0fVvHc+beD9a7I+P0ca3iMWcTSljr3923CyG8dpVCRibW0Jhns5b95A5m9LMuO0Uw1DsqEE+73jGMV0XGwfXqW5szyNVQdusorYcmLNcXQvQFsa5sWn7IjN1trHdj1OhSYyqW8SseZz32XGqWRujm7FNgTk6bl2iYzJIy+ISRR42aROKcXG+hjHMV7SVaTm7GZiriEkHih047+qKW9XY26Jo1ydGm7dwwDTaPLAJMTExMU4843DR2WnPoytaXh87xje72lBYM8a+H4EBqWHHTTQBBmtbtHybEzaVJurAxuRYwH5GDq7ZwGjv0+KxsrWwf64Oi16d2iding6NtraPNmd0kIEw0R9siAwOzKEuaDljtHl9o63ro82ZmBga7V7cpJCh2RUyJccOm3nzRgzJwYH52QUtZ1O0vDOFjdkqxIBtS6HCNgaGJgGTc3Ehk1Y1YpvApmZX2HgcOdvY+ExCxmkCbxwbtTr+uKEg87SU0FQdkrDiVjXuUsAI03QM/ctmO8XtlUnlb0JqflX+fvrrnm+5rlhdcbGm4+9n7LmgMlGeDZrFti+Ip/6pf+qfW7/9rG4OYHpqcax1+6uomt+tHwbtovcL6NPirvPrxH5OH1TTau2C9OcVuMgHjWNeIxtnWdgY57QgwORqq72yQ1cYqnmFrMSRlsyvq5qBuajI+bRWew9nZmAWxzr+fnwWcTx27UrddcqUgWmZ0gUxNPtgN6M+g3ZEMYDp2F796sKBkDWwXqBRe0fofAJNtaf6JS7Tqmei1plfhYzTtTy/v86QWrU+wNgyZMy4FWZgHSWWE1qjv2v+qvl1dCx02qe9/2amWQXtvHQvma+dFMaoi4lNG8N8RSwqxO1l/XVJzfdV7/fNU7S1iSWXlj/sS/WX528St2an6KpVZ9QW4tCEjY3cONZZKVdUo1rNzM85KUH76aBguz0fOnbqx86gTWnBvLX/7RzEMVX9Fpikmo6hH8dtkRzxM21j1eY2YtuSVWfUZnGoYtL6x3m8m2OYq0OrA+e9ySpulzug5YvQro+PNmcuaOfXlJXNgzOJJjYHbK6k2TTvuT0P7fwE+pxq8xYQmDabA/ve7OwAvbdaXp9ozhDYNXwTcqGx51OKNsdHm9MU+751AkaKljdAxi062rmNDzK5xgCZsDowZuugza0L5bD72Ayo17cRKyNC25+gjY+w3zujR9t3G7TcvaFXpvYNmZIzQFvbh8zEMpScvaOtqwDjsS2UYwmGyIDshkGgr59hx3VGy9sI5KhAW9dHm+Njx6jXyKOQM0bLG6PN6xttXQ/t3HzUnBMTXVHuxVZouQVt/IKSmZubHmcEdsA3JVNo85qg5WyDlrsulKNQATtrnDlbAZmSHVCrbH1GUnGbGa9dcCZsitycTeFMx45kpuOY2cbGZhK/wjbGG6dV2gr+uKEg07SU3FAdmmbPuCXEzAN5zJWZ4+jH8fbdRaU+pV3r57xl69vjBterOD+Mh+pPnZ+m6X6paGVNMep+mEJWNaNoYrEh47JENwtb5zytWhZfYXp6urNhbLXeOl2ptx8Yl2U6dsh49bHnF8faPJ94fPNYcq0mtLo/NG+dUlscW2T8osaEcn6xzrvfAhNMjjXq9AtdY53cXE2qOq8ZYnougpaBMWzmWbXvfxDHqvZb0C7MK85U2Tep9DsVvBj3v983yrhk/03jLvuhitrdrrI2pbv2eMqQ0Rm0d+237B5YPbT9Hbd7L41Nq5s/pFqq9iGmKJlhCa3qHxzslVRfP9tfAhglWrsg/ZKHTNhWseSxJGNUN3I7s0Z9flv1/Cr8fHF+V2lnj/X8uWbjs2OO82OO2/aXrc9z5HxS8Jih9tdnv6DHdg4qX4UortNfnt8dl8xnLZ9fJx4brfbr3Y+dtAqM8ypfW8U4H9KOcUbzuFCZOla1YM+tFXkImJNtdU9miqaUqZuvqFX56ypTf91QOQ8BE7VlTHlsLPkaxU7JoKU+p1nMbZoZ24wVD4k9hWlrj8U8jc3UWcU45v10ULDdntf2WEvYFsaaEdsGmKNjV2LbUn5M1I+Rh01aqODFGFeVv2O/btb67GaFuTq0OnDeDX8quR1kBJagzYnR5vWNtm6IPk8Q43RotLV7hc5j/sB43b57Nc0umBj6XB82ISa6ohluE5sf7V7oFzanJiaaEpiko4b/ob819j9+ekHLLWjjNbS5faKt2TswsLYKMGfL0OY0QzNBm8B5Vjqi5/bx9zwc2t4aYj8HnaA82t58ZFwCLe9EAr36VIgN19Gym43NISHTUVu7TyrOo04lK5mmZSzNAG1dH21OBBkVHdHy+mhzmqLl9dHmxGjztira9fHR5vSPM0tHjnZ95oL9TJeizdmMaOceo81rgpazITA2y9DmNEXLW4BMwxK0OT2T3C/tQczCrYGYr23RchaAOVtJXl2rQabknLkb2DEs2roBGFNJaMJq3G1bCduX7V6sDgnW6AHfvIzRxsdo85qQ5QpM2whvvM4SG7ObAN/ExU9oO+MWBldKI1Mvpmt/FV3nd2Xo/Q99/VqRV6zGFayzjHeQQYt21jiOx2sxqtM0M2piYmJsrBaVPr9K+4L2a+bjaLF7Hn8cG/9jj7vhG5xt4iri8XE8C8rW7y3eKepM9TnHMMpYm8ddof+xINpP01hM0dgcjdtT/b0YhTZH+frKnBGC69mHdoUrRZHPaRyTKQl141sok8i/qWILzMBdobk46xjVrqGJObxRW07VfrrGadj8xHWR4yheKue4hvHmByZYV62i6/ytQtV1mtH18qpbj1ve545Z83gE/bLXOWqxIlRR974tvubnrCqqW0lxzppWzK+hRDL/iNQixqio316KM215vOQbSLP9ikZ70agylRe1X9rt37voeIiYjjuyUzd0M+zfW3msrqoJmkTGx2qBMTqkWmBka0r7qJHnHhVoRm7AjhyYrMMoG5pE/IzcprEFBmgy7jj/5+14NlgdLvbH+9w9UhCP1+JRAAO2qzrwPtesuGUDty26OeihzIlR5/WMtq6PNidGm9c32rq9QuusjILAiI3QxqvsnpjYXPyXN1xg7vOLDwzaFhrtc7tJgYE0MdEEMgBglnVFcmlo4yO0vfWNtm7/wKycL77BOLHSE1puQRs/UuznoBNazqZoeXsmMzW3BJ6JOi/ImEyjGZz9o6/dJ/q6OWLSapW2Qh3zdhGAWdIVLa+PNqcpWl4fbU6MNm+rol0fH21O/6yxMTlytOszMWfs928SbXwbtNwjhEy7Dmg5hybYQ2Y2bgWcKTpPdgqrnWBjc1gWp+K2gu0rRn+2rYczWYcjNC7bQmZhAm28hja3LlkerdJW8Mbr5GbnotN/xe3EJsSZo/NWC9+DusqYsjyqSTTRE1JJKEzxLOJrP/NZg9ff3nhjZN72kz8dDw3W2+TY7yUxb8euWYXr2HVhiCuum8ZsOpK2jau0Yn5I1/NJx3X30yXGMZuoc1K7BxiKtBf795m2cXfcfqwi9vdZJ2ajr6ta6HycCk1iHFet48+dKAVmI6vQf0zYPxe3hu6x6szFOalmYm5FMlNWjlPxRAPWeohj4vZ4fBzHpNqFrdAvpGJ/fEzXfotilI4Ot1dUDfp7h7kXxsP1U8WijXM2c4xjieVYYxP02z9LCMRy3Cb2KlnjWMzZlDL187WKC/vl9QkYmltK93RX5CrVGuxcdcdOg5jN2TJgamLc3d14La6PV+Ea6AiA8ZrS2qzk1bUOmLVZHJmsw8RsaI4FGKgpTSFzCWfQAqq09WIg45MK45Nip/OIe4CMWwfe68qK2/n8VO/E3NnlzM85AgOBjdoU+jxBN4cmuqGYURMzwzdtRX/1iaerY/tjZUZoa282Vuh7a+zA3CJjdOzIXicqyQ2TNNq8zQibj4sPG5JjAHtZAOx7P9EPZEb2gf1zcVOTnaMzUeeIZmJuRSZzdmJiFqzpRunIYANuYmIA7J8zQ0NmXwnanKEJ9kBm4xYiPv+mUB5nvrZhgSpuR4FqxDaDDFRn1qo4g3VY2LAcA2xgtiPL41fYxnjjdXQTdBEpVNyqpl1NdihtPlX9VXSd35Wh9z/09WvPClF8pmyoQ/drZmwAjQUVeazCMJm0oy7Z6zkxN8S0hSK+z/0fSDHM28f92umF8b1R9/7opLLO5teJ/iAjzt5DgZE72hj7tUCFujHy4LiTFtHN2rI8Fm1/fcZE1T760NT558yivx+WI021J/p3xur6C+16Pxt53bQrddZhYKaNW+ueT0qZ+uu1V4v93BZNypqxBz7/mzVu8uzVwVmq0KGpWr8vrcKO802mYryWKeVcjtT15+Pj+aKJ+Vb76K/G5ZHxkjebX6+/Ch5vcZrFjqr+2lTlnyCqrv9MwFqO9DNnZx+ftbpmPrJnzXxl75r5muWrpPus7lN0f84eXw+w7oFqHEywnmDDfG3VEuvqIdKvkx7y9LCnhwNljhRZgR5v1SKacYKnGkcTnJiznOs3Vn7B6i/kamG9l9V7Bcrc21ON++Qs+XpfqxbRjJM81bhfgl8kvgndzcfQby7d3+r9zTctoT7A0weQMg/0VONB5pu7LLHuOjnBKZ4W+dauU63mULwTeprV03LNeLCLHxzxEE81filnB+tXrV6182Tzwl2/YPxKXNWQ3CKxnH9bpVxkxGoqx+25Zy1d9WgbQ9PcHcBkdtp7TNh9OBWCGOZrldYA5mla2VwdVtnQJKpM3FQ/2l1Ojl1eP5ZxMicBDFRN6djOz03WHOmPKXvGbax+//xxBiyOVa3Z78D73Mm4ndjMwFBZfGAMTfTFqm7sTQyOmLbv+9NLg3bfvH39G94Y9AloR38ZYgZryPv//Be+mMalwN7aPXu3aMiNGZyndv4C+gGu1/DV0FubwCQdM/Y/YLqDPN1gwyWNNidE29cQaGv3h3buCwtM1A7oFbQNsfvoBO2jB7TcE4OQGbddsN/hW4Op2nVM1Km2JXO0BG1OjDavb7R158NaR7ScMdo8H23OVkW7Pj7anL6x63jm6bw5avnInr3mqwCGbaYa+xLsT3Ag11U2b6F5fNDqQfM1S6jrVtcDZcS4jWHjlljx9TDrClTjSILjVWDWfm1ZlM1b0oyjNj5KGuIM3AJs3AYsQe9llU1c0ox7e1oEpu3XPSSGWft1Z95+fbevJ7HuPinB/RI4A7fA/c03drF5G+oDrGo80NMiMG2/QcatpzvZyP3GTjZvRb9JegrrTqgGG7dF2MAldvj6YKswcyPd8RBPc2Da5somLvRjdk9Hdx9k81HIzMYtgn/ubdnF5mMrYFwSMChL0OZ6kGlZQWjWRqA/24uOlnPm7KhGe3ZuiDM750poXLaGjNoStDkRZDy2JMujVdoK3nid0PBcZFpV3O7YDROsRJfKtS7JPG6doUmu77QuVXkqteJ6Dw/WkYrY1YXVDBhQCcU//k/9xfZk/8TMgRmIV2zaCjBvxYDVzFvMwys2GAXpi+cF2PcfueXlm76C/8JY7Gt0928P/XKu8flLe/xCu7wvyDfRHzBFYf6zShzrGPplvy3V/kcQjjspmS12LyVamcdSa78dlKjaR2eV850vZLz2yc4WMbFcVNsPU7aqn008JjT2msWEzd02rl5vdWHQ918/1nK2QfIyaPPUfo76AJ/Hza0wbUdi3C7tNdssSdXm9E223lq0fo+xtm6MHQ9zCXNYi3EVbE7pII82p2+0tQss27EwrzDHmViNYi1nQMX8GjGO61CVb4JJXR+J/bGDIuuNADJtXYVtjFpxu8dXNmgLlbdUXashFbYxqK51wKDNFKasqCWruBWcSesIK2/DilvWI5lypa1fcetV3hZgk7bI0QQn5sCgzRSmLI7ZpM0rbkXvZTWsvGWNK20FqbCNNINN2iInJbhfERi1UaVtYNRmmqq89StuJfaqbGHQZgpTVlTDmbQFTkngjNms0lZiNmf9iltWmLOiXG0rWllxC6O2oP+edce/p+rbrHIUwAjcQopz70KWqwqYn6UxDFQcO83imhW3NH7VpJ5xW8ifqRDFif1SXmfisqba2/eXsqOGWtgcZc1jpro/P+4SQ1PUNVVLUfL60H60eQowUFOaQuYSzqAFfqVtXWB6kkq8PYphjLqYieIa/an80p+kylj2+sm4deD6Vxq3+LneKrR5i4h2bj7anBhtXnNgmqbQ1/XR5/no83K0Oc0RA3jULNm9Lq12Ajk2Bdr18dHmzIPdzkhLQe/JDNDWFrTxDYHxKcZqyrQVyszb57/oxZTDb/PBnErj1iLGbepnmbEHrCUGZryPrmzriJZTwDnV3a+cn9aHawB+1ebDtRDTHC/Mmypw58FKCdr4NqyUoI1vBkyASnbp5mCv2HW0/fVJ4byGwP4H5fAo1y8iN8V09Lw52pzGkBHbES1vU7S8TbA5xLjUKKw3V/DepdDGt0HL3SPa5yrGjives+n5aGtKnCNGmxOjzQsR8zWFNsfHjlkSMy9BIecAaOv6aHMKYFwJWt4ImKtDQutoexNkzCZAN1JztDlN0fJODMnaSND25qPNKUExU2fFC1Zh0MK4FWyMytpYg+paDb/KNgdmLaprA/UrbT1FtS1X1YpqxMat4Bm4hYpbNm0Dpapa0RyYtLmyaRtqXmlLFbaZHrXqTNtCpa2oBhu2RVBVy6ZtqHGFbVhpm1bNvAUnGaqsjbVQYSvApBXVYMM2wK+4FQ0qbv0KW7/SVjQ0bzn2TNtCxa2GM2wLwLAV1UBVLZu3UDJyvUrbbxVUr7iFcYvjF+66V25CZuwpIR7bnNgAbQMZimVU7FXLGcNjJZeCtm4LYL6m0MYXWe2IXWtnOVyVO1/InC0jMmHnyd23lwPjcFMSV9x6pq6KNl5Dm1sXyrFUSmDGdgCmLRT3wDGhYThylraI7i6aoE3YuSSsqorKXhn7L/7F/9fc47hdwfzekHXGrJady2zAtlXJsymocb1mQtk+dttrXga9J2DPcKqtG1MnT0Lv65m2L3jR2YV+X7cv7yHT8L4PeFBgmu5w7dvtOIqtSgyV+G9v/DatleqXODduz1D7Jb7P/fN9wMRM5Wsad6UsP/Z7o70OqX4/xvXCK50vBNdA3kus07ehrQHDcL5q92EpVbpe5dTKU6FV1M1TpfNnxaDCd0j0decF3x9tFGYKjodUYpe9bvY/YEnbxJbSdWj8hOAbl+ON3fuWvX/zjC1QFf6clCs+UyVK+RGn5x9nv+dLlSjJ03W+jCnLU0WN+duWYSqKWqJYxo0aOh+7193O1FMUla+9sNxRLdhTa+0hP1GVp6Ny5a299jZO6tBgD6QV+xhaRwJMTVEyDhvGOMYzWdsj+7A4LcbavJDy+TGYE6qML/bPno9QZW1ecZs/21Z0n9Wo4pbUVdfGlbazesbtHjZnB3vGbaYwZXHsTNoCRxOcWGRZecZt9qxbNmd9ZVBVW1FxGwOjduBn3ObK5qxWaauDalpRDWfQ9vyM20B3Ks+4tSrPuNVBVa0GqmpFHTBqg4pbi9Ordp5i7mm/zzKcWRkamBxnhqc/vg02B75Du+g9aU8MGY9QiUllXBfK8nugX4hjC81XlKiab+PS+V7cth8cW6EETNwBlQzaKrXApI01N29Xytkp6sa21Qru0ZHM5KVjVLK2ibkCtj1uLx4S53vU5qW5R0JT/b2yLVSYuqJl5JW6VeQGLq7RYhm3WwYxqFqyJMatjj8Wxu2/+lc/N5x5O3ZwPZZgunRB8mwCtGskaOOHQFs7wF7zMtT3qGe0dWO0eTUITdsXq2MEmGQ+MAl98zbu18D4PipufaTKt6pSeCzgGgCtL0aur9ZXhlwTzK9zDdtCFcb2/hs72t5jtHkTOprR2jfauosIGzYDIwZZF7S8PnaMbw5ObA4K90HvKPfSENBnIEIb59CqYavQ8vhoc3y0OSGReamBMepchx1DJm0JhZyjZW8pfuVre5w52RotZ1O0vD7anBhtXr9o70ERjBsSbc15oO2tAZnJ2B4YAF3R8jbCnguZpiWo8zy0OV3Jr7EYqvl6Q/O/YNrSTyWLoroWx1ANqbCN0Stu+Vm2olx1GzzjdrXNM25FHStQqbCNFVW1OIZqhBW3OVxhG5A921aUzVt5xi1rn8+4FfVBha2oBlfYCn7F7eyecSvKJi5pUGXrgwpb0SJ5ha2n2jNuM05x8SkJ2Lgt4lXZFp5xK6qRP9+WK23lOK64Zf2qJTZVYUym8ca2JTBH22L3AjMvARmg6rwm6LkFMh0r0Ob5aHNitHl9QuvAPC1ldXDEmE1BpmkFceVrjG9CtkXLK2jjW7HdmYxzB3tJE5ucMWSSdkTL2wjk8PNV4ealTNkykhW3OxNatz+vGB0gtsdkOirKhs8m6d+9Yq+rUxcLtfutMqvecRjLOBi3eMG8vec2Nm+7rk/geGFgEwzXR9Pqfs7DsbsOXrwo/XUZen+V7LbjAMbLsR9THrw/YWWqxLG27Se09f24ITBt5VVl2gLN7IrNW6kETSkqTf2K25SKcfv4qOJWU+wBrzp562pX5Hpp+XG9pOJW6/cV4/BK9Zfhm7daf9/EPxE989h+DlCRShRiuV5pLZ9fL95KsLm64rT/eLMAM2VoJcSoaquW0nUwzjfjYnNui8VierKONJb3bZ5aiz21NK9gb6aFfPb7no1Up16sjo/Vji+NS9VC4z38GMdlxOPj2B6zkVemMm7Mir2ySSamYTH2jcU4jqnq78rQ6w+9/2oC07GgzgRM9g+tVesP3d9Qe4JMSlLeXx7X62fE2Gyr2nq+dp1fTwXEfJ2RX5B4aHWGrVdxG8MVtjiG+s+2FWWDNqu4dYatXm0LpMI2Zj0HxmymzqiNK24znEnrkMpbMmxdlW2oMGVFueJWtPdn3MKYLSjMWByzSSvPts3je1kNK29Z8ypb/FxyUHG7JIpKW6cZbNIWOSnB/YrAqJVn24r6Rm2meuWtPOM2VK/KFgZtpjBlccwmbRE2a4ucksAZs7GSSXuqyZ9tK/pgT7naVjRZeQvDtlBp69T9RDIrc0/7d4aksarFXYnztY7tvku1K1X5ncL4TOmIEJM21gIwauM4M2+HU82s9dGM2iIrbHzGKmBM0O/i1v1OI6Ryti2UB+ZoJ13m4y5atY4dA5OT5yTY1i2uyl/Zj3wRYs5Kv8Q+MGxDXWITF+ZsIhbjFtdncSpuyeDcCihGVQtgjqXwx4lxi9e/+pmfM/eAeRuN2fzAdJnQr02MNq9PtDVjtHmLj2/aPv7XTlfHxLDBVcT/ed6qyluYiH1X3AK8ZmVQdgX7rLtXjMNL66vCf19g4mpjJvoD5tbERAwbNgMDk6wrWl4fGsfm4AQbpGNHfR8jpBp0KLQ1h0D77AFtLJjLPp0xOTQwPhcfGJWzQDcpm6HlbYKWM0ab56PN6RcyL0vBmFmgrT1rtH01gIy+7hy7vLc9Pe3DN001tDkx2rwu5NcYZqoYqzPA3hu5cesZuFnlrTNws0pbUQ2psI1x1bUOmLfqM24zUGHLqhMbt4Jn4GoVt6QaUmHrDNzsmKtsYdqGGlXaZnrUUGWtaFBpK6oRGreEX2lbUFTV4tivsgWorL23yStsixW3glTcfsNV3FJlbayFClsBJq2oBhu2AZXPuBVl8zZUpeKW1DNtXeXtLJ5xm1fehhW21c+4zY3cwLglQ7ICGdsWLWdj7J4r0eY1QcvZEN8AnSNSXatBY8hALQPm6rBoZq0PmaZVwFAcAZoZ2wQ2RbvCxmQ3tLw5vtGpERumbdDyNgI5/HxVuHlsxgpsyFYRVNyiapYMvYI6o6+iH6Yq6VKsrr/Q3q5/a4Gqvtmob9ziBfP2ntt2F8Y1VX7/WNlkGq/yPu3eU8+y3Sr9pCXXqWp+T/1Mah8Cql51uCLW6nIijrVlfzmyx3jPegyjVl65aVs9PzCq7L5YOcYzb8UkfP+ll9EzbzWyilulz+f1F+QVt1q/D9bGq05eAXnxPF/sVfaENWk9nLsdgypMGu/Hgosx//1/mucAyIs90VwLjtEmyMtvA9q5ZhW3UTuosz/kxAt5tH5tPubgWrzPOy+c5/PtHuP5wT3hAcM9Nt1hHuPnrOU6IYa57I+Jx4rRDyO/3MSX/cwTt5fdbj+kUWyBmdBaq/LbmCuR8Q/fw8XYy9bCnn/LGIbNptDY3J3ixYrnif3+YNVifLcgxmemvaagfpef152zWmg/JVpF2XxiGUaeqEViHC9MP9ANxN5ZTsSxJvq3i7r+LK7ZX5U/W8f1t53fud8qzKmUzoqqfcxKNw9ibo6X/Pm1st8wzgzboD/MMRPsHria1hm1loV5xi2ZtBtmsGfcZsCUFdU4muDEHBi0TovPthVlc9ZXBtW0YcVtyH1yYNBm6szZgZ5xK5W3Zc+4zZUrbRlU1UYVtwGusrbnZ9wKyWfcZsCcZQ1BVW2i4pb4pRwYtJnmlbZZxa39+5VqsA7FbvyPL910LBxboQSMUTp2msXuuA6p+UFc0m8RkzZWML5n3DrDNo4tvlGrxjA+ncZx36qtx+ZrV+0O7QcKk3WIGLp9eXHYFirMWdEyYNyKlpMbuLg+bNx2BObq0LAhuFVgM6s9Ws4YHhsbt3jl5m2ctxmhybR50c59EdHOzUebMwTa2k2A0ToLtLXboJu29YBpU8Z97/+gzHBNmbdiBGp9Pk2MWxkL1fpjsL68xEQUgxSvqqphID9DjJfkAFIhi2NZT4zlqpd2zcqM2zrvCcBe8EqZpAL6Zf944ViMVnmhrU4VtBiuOMZ4eUk+WQfq7yveA8b64/HeVJ3HWIH51QdaboFM1Vmg7GtCJzOvBkRbtyla3gAYgRM52jWaKGK/LyrZvcfeg2nI9NRyO7Q5Ptr8QsWt/XtWKUqOAtq8GcMGaBliik4waxN1CcyyBHbcoGhrzgNtb03Qci4sioEZoM2J0eYJxYraKvJrnOeYCfY7hUxb7Rm3pBpSYRujVdsCVNo6pUpb1jxu84xbDTZuCa3iVq22BWHFbY57rm0EzNrUM26ZPp9xyyYuV9gKqYpbRipsBb/idnbPuGXzNlSpsI0JK25jipW2VrVn3MK8zSpucQzVYOO2iFdlW3jGrVdpK0oVtqI5XGEryuZtqPMxbrcMMCZHABmgCWgMzNNS9CrZPiHTswQyR7viDMhOaHk92HztCpukXWBjdVhik3OUuEra2VfcqqbexHwpmlnNkTxx3jC/Ztzi1ad5u+l12WORY3tceZ6i3pzeY0vpPkhz81RTVMUS/nGfMdSSWp+rIHm/ZXQxbYFmFPlgHzApxUiF4RabjejT2mPqGrdiisLg1Pp9MBZr46WZvHE/nZNtR3UxqYvFiMRYzIn7YerGJizGCdgr8NsEfw6oMm6h8fqogvZjOSfsW+vHfLneWA/7j/uxNxim6IeJml0f+55DYzAG62IOXpoZjjaMAxgnYxFr5jBMX7yKubCHOsjYWPuiKn/RLBOkojaF9HNOySua59eVgeHaV39m3g6tmwAYOrPQrtRdZ9LFI3ke9nN2rGV4hamYUmcowmRNqYX3rWk+piwPn2+uYtYea/tlH7WI8pCh68clsFFYrto8n6r51WrxK12FMcZLink4NpajylfBi6v66biE2vmHxq4Dc6pKCTs+O+45rruPQbXr+YwKMTa7aBXd5pMZa8dK5a0WEy7m6+3nkHhgtd9bwU8kK6gVt3t8ZYO2UHlL1bUaUmEbg+paBwzaTGHKilqyilvBmbSOsPI2rLhlPZIpV9r6Fbde5W0BNmmLHE1wYg4M2kxhyuKYTdq84lb0XlbDylvWuNJWkArbSDPYpC1yUoL7FYFRG1XaBkZtpqnKW7/iVmKvyhYGbaYwZUU1nElb4JQEzpjNKm0lZnPWr7hlhTkrytW2opUVtzBm1YpbHNeruMX3QtgWxy2Aoek0q6DtO+6JsvVQVetX2Kag8Y44pmsv5qkG+r3xVfnU2OUSkzZWH6qwhVEbx5l566uF+uP2dv2aWZuqtE0h41JKwNQsqEVtV/otZetkwIBtqwQMWFEhbk/3Y784bq0wZ6t0O1etjpptRcScRb9v1vrAsI01M3H9GGataw+ecRsaexPjAOZPF7ScPvnYlHGLV1fzNjaZNiuB8bjIKOfmQ++rNq9PojXbIKbq0GhrN0FM2xtvvLGVaQvYyEkDkw/A5PONQGmXviZVtGVjkUtMyTo5646FMYgXngOsXQe8cB21vgwlr4BrEl+XFBiHl9ZX17CX84Fq/XJv4Ppo/T64Ju93BirmafcBEEMWr7IKXX9vWB9ztHGC5CxW3eYGYxp/fIw2vila3hAYJl3R8vqQ6bkZUM59USFTZ0C0NZui5V1Y4urYpmg5NykwVofEN2hTsKmYhqtd02TGbUxZDtt2rEe8J5U4R4w2x8PfTwptno82pxliii4KayVo4320OROtIXNq/mAf80Tb09YGxmUZ2pwYbZ7gGbMNKK4xA+z3Tm7cegYuKmtjDaprNfwq2xyYtdmzbUW1Z9zCvHWVtrlqxMat4Bm4hYpbNm0Dpapa0RyYtLmyaRtqXmlLFbaZHrXqTNtCpa2oBhu2RVBVy6ZtqHGFbVhpm1bNvAUnGaqsjbVQYSvApBXVYMM2oPIZt36FrV9pKxqat/N8xi0ZuV6lbf1n3OYG7swrbkFkMG5ZYFxWoc1rgpZTQ8xUFZirw0KmZQVinHZjpSNazhzaKxmoXWDztAtkrnaBjNkq2PwswzdD26DlbIxv2qaw41Lkhm0J21LPuLXsEl1epeM6KuN3LqeVsOOG1qp9LITifJagaXhcP1pm3OJF5u12Nm/r5Mt0YmIwnHm6wAqjEi+YgDiuOy9W1TwswTdvtWrSMnzjFnMFeR4sKlrxknPScvjINUBerd8H6yCv9tPF6KubJwVyA60vBuPw0vrqguuFV2rPTdeQa1B2DpKzznlijIzHXrUxgpyLOs7ep0Oqb9KibczxGID5Om8ldndRm2c3ck1K1wPHI1fNnCSqDFmvv+46i66aMTgE2+z353EWVdEP7J5KtQo7jj73sUbIev7+hLi/sfqVo5tdLds7KlG2ztJaKduX99mxvtr2IN43GlL7C7V9fxXV88vzbCPYnMKxrt37cbwIpPYvcRW+KZmr4PKtWLWQ2raxxjgenuL1KWpZ/4yw30tcWesMW8vCPON2D5uzgz3jNlOYsjh2Jm2BowlOLLKsPOM2e9Ytm7O+Mqiqrai4jYFRO/AzbnNlc1artNVBNa2ohjNoe37GbaA7lWfcWpVn3OqgqlYDVbWiDhi0QcWtxVNUZaLanv6njVlpKXY/Pah8p1Ebab15tRXXrYLMOJVjIo+1OTFl84E2R0PGxupznBbvAlx9Wwb2WaYwNMWgjQ3bzLjFuC5InhT2v1VZ3dgWKuasrwXTdt5KwMCt0uHxzWCJYy3rr6Jqvm/g3sM7joFBK5qxo1lM1bdZxa1n3MbsWlpV2yeGBtd9NlQZt3j19bPJExP94czLBeQsZ3TBGMtM2xbAGCKWm9HWvJV5ZS9UaIqxq+XwEXNQ69MQYzjOLQawZurWpcleMA4vra8uZXuW61xlmMaUGqgW2XedvL4Jr/X7pIxz/AP9xHgg43MMkEk1sZUgQ7IjWl4fbc5CYj8jw8OmZorM9NxdghtXScW8eO2+YbNxiyDGa1u0nAXWurE8ErS99Y22ro82J0abFyH/kDwU2ppjRNu7jzbHR5szHxTzcZRoe2+Klrdn7OeITFvtGbfZM21jpMI2Rq+45WfZinLVbfCM29U2z7gVdaxApcI2VlTV4hiqEVbc5nCFbUD2bFtRNm/lGbesfT7jVtQHFbaiGlxhK/gVt7N7xq0om7ikQZWtDypsRYvkFbaeas+4zTjFxackYOO2iFdlW3jGrahG/nxbrrSV47jiNq+8nUfFLZufabQ5TeA8MFmFfvIG7K7BLjYuk2hzYrR5PtqchrA5m0Zd10et0vVZZVNxE+AbtRpsio6B3NzUELNz4VErgX2Wg4pbqrr1zNa+kKpbteJWoGpagOo2P7b/wa/FGW48qkeDeEZIpSdUWLiYrmk5NNZp17iOcXvXXcXK26r8OK+JiWFw5uUCqm/a1hlfpb5R1oQ25q3MgamHYx+0wbQVcxCvMoMwZfaVIcYkTM+4T9atey4xmA+0vhhZS+urS5lx2za/XFMtJ2iSF+8LXnXfH7y0dWEYSuXpUDpRHxinfBxWws4y7g7yTBC77fWowd5ffIp57u/8kbn4A1ebqz5zg7n+y582r32gPnYIYEj2oVXUzTNqte8rG47Dazdg4lXrdqv8HZDHqfG8r1xT4xqpGJJbQQNgRjWM66wDM7EMypNWrhbVK0tnGeO4zn7r6t4HPNV+x77d+469xrz25Ir91MhbOh9jLDDAhlRG1huvdj0PjKuCK1uHVrunjjobcE360IGxn6PgJ5IVuMIWx1D/2baibNBmFbfOsNWrbYFU2Mas58CYzdQZtXHFbYYzaR1SeUuGrauyDRWmrChX3Ir2/oxbGLMFhRmLYzZp5dm2eXwvq2HlLWteZYufSw4qbpdEUWnrNINN2iInJbhfERi18mxbUd+ozVSvvJVn3IbqVdnCoM0UpiyO2aQtwmZtkVMSOGM2VjJpTzX5s21FH+wpV9uKJitvYdgWKm2dej+RLFB1pf2Mk8HZg+I5uHTsgMkZxmF/ymSVdp7fNOZc+O6S42bza8S4bmJ8evixb45qxONTcRXx+DiugsbCpE3pLq6a9Sto4zgwcePYmbdlkDFqx2eK6timMY4HRjNrBRoD0zRWYVb9BAxaUSGPYXoOrX1Rug7M2VLlStoMmLde7JuvcdyUrOJ256aquI3NnQWFrvnsqGPc4nX7HXc1q7zVzm1iog+WnHG5YASmrdLfmMgka4qYc9hPHcNTxmvGqQ/6xSRMGX9lJmwKMTs1Q9g3GtuYt9gv0Ppi5Ny0vrrI+WvXB/np2bZRex3wSs1tco5l+9NI7tnep0PDpkADnv4ec+0Nf2O+VMK1F52pz11wdCN0EcG59McrPqzfB1+64WPmFcr4+XPEnHXJF831V7/TnO5MP5WDjzUvff8XsvO5/n9cZ678wMfMxW99lXnaDI3biWr4HsT9ZuPsfX6kbb/Btl9nLjzziNc+FsTM6wc8i9BHG9MYMiVHwBPfbq78/BfNe191qt6/CNA1XQs4/aIv2vvzi+bCp7u2ZY+nX0J/1l5+XtQ+FNk1Pk3vH4KNx5uX/imugfuO/bx8x77aPO1kZfxEdl9ce9GzlP7Xmsujvr3nXGqu/fw15q24x4Kx/cNm4rwJjceX058NV5mXB+2Ptu3uz4ZnHvXaJwrY76XcuPUM3Kzyls3bvNJWtMjNX6P/NCp5fc3c7Mxb9Rm3GaiwZdWJjVvBM3C1iltSDamwdQZudsxVtjBtQ40qbTM9aqiyVjSotBXVCI1bwq+0LSiqanHsV9kCVNbe2+QVtsWKW0Eqbr/hKm6psjbWQoWtAJNWVIMN24DKZ9yKsnkbqlJxS+qZtq7ydhbPuM0rb8MK2+pn3OZGLplz9rPXFzA2q8iN0KGI98Xt2l5aY6/bZoHN2TSBEauRmbMpdLPWh0zHBUAzbH1y43TesLGZgkzNzQBV1ZbhzNqBK24BGbfblZ9KRhUt6TIqKD1dimJPeR4MFRcndKINexIxtB/qGrd43Xb7HeZf/czPm3vam0fLpQFzadJJ+9e9Vve6WNNx9aMaES+YW1p/1Xytn7HXYmUvmWSBWtT2qF8MOhhvJz3w5NL551/wJhr7+F8/o1Z+5MQryOv09S4XrksTZI62vvRf+9nPmhe8+CXqupla/Ng3NbV+X+W8Uv2klrJ+7A8vXP+4Hy+cizYvU4vWLlXPWj/a0U+x0u+r7A9muTrO4seU2153v3+HvT+HxzNx7THMyaxN4rjfGbfXf/Sd5tzfOz/iUvMp+kfDM9Pzq/LH/VCFVLswSL/dT0GFWfWPEDbNrjMXF+6Hs81jlPHz54g567IbzJe+8CFzlo1hoqE91CPmuZfAULjBXHXRy8zD11PjZqBkTooKzeKqdRad3Lh1bctHzNMuuo7ev8vPfaSNpT3SbHxC2/YvwaTD9dWUn4mK4wyJY43x+lVzsGdkHVQpzlWf+HZzlf2z5eNvfny98S2UWPGQONZkf9U6PJZ1H+kZmXHLMVeEOjLj1msbkideaD7urrHa3ztHzfPcd+zHL3q5efiGNmY4UCW6fYUVlZaZCnF7l/4+CYzbuN83brlt7zkfNtfba/zes+OxHlX7F63Cn5+g8EzZWHvu941b7j+a/9lw3qPV+TiecCw5Y9aruG37jNtbyLj9R/OTD1xpbr3iwxYo86Ov3Wb7vmZuqVtxG+CM2ULFLczYDTPYM24zTvBU42iCE3Ng0DotPttWlM1ZXxlU04YVtyH3yYFBm6kzZwd6xq1U3pY94zZXrrRlUFUbVdwGuMranp9xKySfcZsBc5Y1BFW1iYpb4pdyYNBmmlfaZhW39u95VDFrwedQjlvHMEoR+yrEcQo3Dv+DjN+exTX6+X+u8fvtefapMDwXCDJoFfXJnmkbx7vCKlsNGLilCgO3RLlqdgbAXJXq3BZxYNJ6xxKTaTpvJWDQVunwFIzWhmg5fcichSZjrqQFnZ9xG+P3u+Oft+BemFHFLQzc4QlNzsWEzoWuexptXluaGLd4/dM/3ZL9bLKWT4jfm4mJftizcGSGIkwzpb8rMGi64Ju3ZRWwUtVat0pWKmS1Sky5JlizKWVVoDgXjMEL69bdq+TW+mIkv9ZXFzn/uDpYrlndStcYnDNeWh/2rb0XGnJPNLl+YW7NZB2AJbtWU5xxS+Zsof817h8Ntb72kGk5b7CPEaBX0DZBjKX+KJhmm4EHnW+utPfy9Ze9yuzV+meJZ8C2Rsu7iYjvwdPO/Zi53r5/n7roOfN//1T22s9ze0ZVDbsJYNO1G1reEDZtfYKKWxsH5qJq3BZzzINgn205+Q38HXv5uWZN6dfW9YnHa2jzQjBmaLR1O9Cw4rY+2t59tDkRK3ZcCfKP9sMSGo9xxe2p513l/mx4rtnjjZtIsORMW+0Zt6QaeZWtD1fcoqpWnm0rHDDf+8wt3EeVttEzbve0ecatBhu3hFZxq1bbgrDiNsc91zYCZm3qGbdMn8+4ZROXK2yFVMUtIxW2gl9xO7tn3LJ5G6pU2MaEFbcxxUpbq9ozbmHeZhW3OIZqsHFbxKuyLTzj1qu0FaUKW9EcrrAVZfM2fsYtGZH2+6wv1OrUCDY/y7C5eoXzantpze5qfFM0hTZP0MbHaPOa4lfXapDBWgZV1XZllY3HLti9lKLNaYhv1GqwKToGQoMzRszNocHzXtui5SsQVNdqLM+m4nYHm7Y4Tv5Usl9hy7Egset3MYHn2rrxbLDYfplv1Tf0how3B6iqY/j8cBxrPzQ1bvH67ndvqld5u8LGEnSKp7i3eJmrUaXydMyxGHSf+UxYaSt0ilH1iDZoR1CdihcMOFTUamP8ilutX0NMzrhdrgvWjfv6APllbVSCVq2DsUDri0mdUxNSOeR9wLWO++qAc8VL68Oa6Nf6Ys6Situa73Uht7tXYa4Oq3voONOlGnFm3D5T6feM22z+8eYRZ7/HXHkd/vGMufaq95gXPvr4aP69zRmv+5j51Ofzcddfc6l54f3wj+Lof6a58DN5X8aHX2P7f9287c/t8ecvNc+z+Xg86/Mu4Z/De9sTbXzex4rz6R/N7Xjq+6J5x9P9+Y80r/sEj8t+/tn2ZdSMP/SRq8z/+Ksvm1846QGF/l+43wOy/lr5esOeX0/qm2apcWuPepm58Kr8JzG/dN3V5sIX/6pZc/2cQ4evPcbdi++RL7i+L99gPvWB880Zv+Ctl/gp72uvvtSc89B8HK33mfeYM2iPRdZ+72o77wbzvpfq/duXft28Ve65qE/uubc+IW/jyrpwT5efK/1n8r2Ne9mNB3uff6k7F2dIwoA9l+9T3LOZIZu1f8G1W7z/wQL9yMdmJlegIg5yISYeaV7r3fN5+7jx78G1M99Dlf/X2+t5mtwXTu975lvM+67+orn+y3yOX/ryF82VF52djatzH973zDcncvD7hv1gHJtyYQ7eo10L3y9W1x6tfC7OfpxZc/1A3ZO9d0+3YwrmoPodJ9i13Tj+LrzanPvolwTr4/P0uA3eH42z6Ht8vNnr+pn7FL+/P3O1ed2T0ee+u/F5k/EPfa253H6O6T1KfGYZ3nNuYrr5y8/S/zy47hpz8cvs/b0MI0nGAhh9YRz0+5W0bQnW0NYHMBRZYXT5FbfUvuJMR6hv3Er74841F370Ou/e4+/Ax1O1Kufl77ZL7P2Rr8fr4Frm4/heYdOYxmXruX5vvijl/uj55uEvuiT/M/3L15nLX/M0Nl+z/d/X3g9XRd/VbzBn3Fv69+Xfsef483L111979MvVe3DNjS//3D7LjnH3y4dfS/kwB/nXXnCZu/euMq/Amg5av4RG/Xad3PjsQQPjNu6PjVvb7r3P/nz+CW43D/t8Rni/oe0+z3qree8n4++6l5jTCuvy+DrAXB1WZR1W37jd+6xL3J8NrzWnRuOOW76vOf33i/fs6ffiMYS9dn/prlHWVmhPfDc5eMyDzVNf/2F6nnPWh3v6RX4FsMuDz7Ls82HyvWn3f95VQd4A+vzbOTSGv1/y/T46+zP+L+19krcnWFpjw9aruI1RK273+MoGLVfcfs3ckj3rlk1aIMZtVnF73mfNXeYW8+M3vNrc+tfo49dPv/1Z84NnOYMW1bZWv/X8d5of35iPMTd/2/z4j8823/IMW1r7mx8x//uPPmfu/BEPM3feYu644jzzt17F7d//3ifM7d+5xfz0znzMnZ+52PzDClfc/u07/pf5qW2+6zOvN39LJq3llAvNbch583Xmny7/Ck/76LPIsM0qbp/yZ4ZS/s/32Xnnmx/fTMPC183fM7e98z/Z8TBlYdi+ytz8ma+bu1CM7F4//f7XzQ9f9mgya7/xp99wrcrr5uvNTai2pTG3mJ+8yq+0fYH50Y087K5r30gGbZE3mp9gjzf/D3OTVNo+40PmDruXn371w+YfpMr2kf/F/PCvb82v1223mjsuf735O9+off83bcetdg9s0lLF7as+b99fY+54v19xe6W5w7bdde1bbPwWXj/xuuP9Unl7prnpsm/m1+jO281dX/mEuemXnVELaP2/Nz987vvNT268ncfZF4174Cl2jDNm3/8t22r3+Tsupkrbc7xr9Qc2lorbZ5vvX/at8L256QZz82MrKm5hzKoVtziOK26lcrYHjUzT4jNtq8F3LPKR9hAz9jwzFYrPsK3dD8NTjM8UGE+aiivmC8n5dn8yJoGYszJOi2ksTNqU7uKqWQ0Yt4HChG0Vr+bmKlTI4up+5MFxSrPKWSGOY5R+zawVaAxM03krAYNWVMjbYXrieEjti9J1YM6W6nIlYr76x41Ata1XfYv3wRm3gjNhHTBn47Y2hKbkxJhoY9zi9e1v/0Nl5S1M580BG4YTE03BC5WIWt/YOOkBD6L9nn/BG9V+tOOFKkytX0MqQJHbb5fn/TbJ1QbfwI334IMxQOuLkXxaXx3k3LG3uE/eg7b3DBmoibllfSF77R69n0q2cRV5br1/KHLTtAF+xW2h3zduue2kV3Hl2/WfuNS87pyXmRdecKn5OP5x/wsfM698aD73jAvx03V27kffY16Hn9m94D3m8kvON49w/Vnud7/MPOJXftXyZqrWgdlF67z+03b+Debi5+c5dyyfbS7GWp98O+dx/4B58dmYLzzSnLSR970DJq6b/+Dfu5r2Tvsi0yY31ZoAY/bvvvOPuXnr2nEsfVB/ziLB/2jOppnWv/1B9r3DP4Z+/tPm4je8zJz10jebiz+Bf7DMTcSNh/yqebh9Px7+Ky8zF+MfK696s4t/1Zx2/yM0JrtHPvB284qXvsy84q0fM9fiH5SveY952rpbS+5Pe5/I/Kf9zofoH2u/dPXbzcPdntjceI853R7HJiBg0+3T5oIzzw4MA/xPB8+19y3G3Me75/K57p6zaz0sa5P1LjVn2f087MVsyMK45f7cuM3yrD/H+8dfXFuYtL5B6+Kg3TNhfePWxnudmRlUoCrG7WnRPS/tYye7Bx/q7jX/nvD5j+8xV+I75qXPsffGc8y5H+D39srXnUL9de5DyfFam+NhUY58T3vNKz5g59N7/jg77nHmtVe5Pdo+MmWzz8U17nPxluhzwePye+dxdh+Oh59q30fPsBWy7zheUzjr3dgjjDt/3A3m+s9/0Vz17reYs+x382vffQ1/V3/gNeY+btz2k709XmD3eI63x/NgkMKUPN799Kj7bD7/OeZ5rzrfXPDut5tnU39k3G7Ye/saG+M9gkm8cao5Tc7rAph5vH8+14eaDcxx93Nu3EpO77r85mvM+5D3hmvMBb8i4+qyZgITtg3IoeYWZEwOG6o3mCv/UH5e/g05f8ifRTLSlh0nn2/e+8kPmwte9RLzuF95qjnrIn7Prn33Wfb9WiP4fmHjVtr4+wzvf94WGnqWwNDTodxfsPcNDPILXm7vh7eaiz/p7odXPTjbZ/5dfaF5xTkvt9/VV7nv6kvse+7G0J7se/XMl0bfsZeY5z10X77uyWxW8T2INf178NGUa+Mhj7f3AHi5+9y+leKHWU57wAk2T27cZnk3nut9x4bGba/Ien0RGLdxv1JxW/d99ozbbO/PucR+111iXnvOc+21fK73Xac9B9mbl6IwJwT/oN+d0HjMjFv3P4vgHnyqvQfjcae7e/Yv7T37cnvPvtz+/eIv3T371A2XOzNo/fXi9hPMvR/xePNQe+899FfeQn9P/ct3v9zFjzf3vxfG7DPPuuhqc+VFbzVn/aa9T3/zDeZy+h8hrjbnniLXKzRutx2y9yt9b9rP0CG753s9LMv5Avp+v9q81sUPfcRpZg/25b33stdTvT/j/5KM27xPxf45kxu3noGLytpYvepajVTFrW/cZs+4PRfGrTE/ve02c9df/7m5+V3vMbf8+deozXz/s+Z7ruL2a0+5jMxEc9u3zU/sn8s3v+u/m5/cSA3mjkv/gzNuN9i4vfM289MfYdwldtwnzE++48a990xDlbUwcM//nLnza58zP3zXm8z/PuvNmWl854eeacegyvbh5gf/E/NuMT9+NSpsH2Fuor3b+PceYWNn4t74Z+Y7MG1dxe13PsL/7Xv7O47a2Bm3N3/J/OCs3zLfPes/m+++7gPm9u9jxPfMD8+SStvfNLfe8D1z+6c+YP7plf/ZfO+d15t/xtI/+rL5PqpuH/V/me++4GV2/svMD/4Ke/g780OKX26++x//o/lbVNi+n43bH78qr7T9h8v/DgvRi43bvOI2adw+8E3mJ9jfTTZ+kFTa2rabbNudt5o77J9Lt7zzw+bHX7kVaW3eN5kbC8atmLmhcZtX3HrG7a4nmO/8h98x330++HMyve/6q/fa41eZf7T8wy9zpe1Nf+HW+8pnza0XXWFu/eQ3zV0YfNPnzfcf6Bu3uJduN3de9xfmlos+YH503U1kwP/0Kx81/yCVtu+LjFvL/77sOzQXLzFuwfdl3W98wfzosj8zP7zyC+aOv/oz8487+GeT2z3jNjdwyQS0n7++CKpSFWi9SmyuXuG82n5as7saMj4r0OYJ2vgYbV5T2JxNw8ZqCVQx2w0yHbti91KKNqchmmHrkxun84aNzRRkas4ArZK2Llq+AlRVW8byzCpu5Rj3wTEwbHehOpYMVoGNt92kfns7dq/YXALyerFv9JVRNt+Pk/1QS5Bz5HEVbfND+fq0q7jF66c//an51rduTJu3Lr9USoLNGkNTyNiy+X3GMal2od/+vcxqmfrj267v8lm4P4/H1o/Xn156mddWnI/KWdA1ZtrH9/OqPbV+qbh9wq+fofZr8Wc+y89cjfulovOsF5/t9eX9fcZYC3sA93vggwr9UOmvkw/j8Er1V8W4Jnjhemv9yI8xEsf9ZTFeuN+0/jBvsd+P5f0J3+s0Wm7NaB0FmSH0TKX/NeaKoO+Z5h30D0/vMU/yxz3xXfws3He/gOMNnvelT7zZPMQfZ7+f82Me8/G3Pi6IYXZRfLL7advLX+b6Lc+/lP6B6srXncqx+0csVNXyGC9/3Heyzf8F5PsQ5SUzesmZuimlfEW91/0eQKatmLeI7235sGfoavM0HQXReb/SmWavTFwXqSrLTHFqP52rpK+7lMyd/H8icPeMfV8Dw22djXtU6N3Xa1972Yfce8zGW2bcBkb7vcy5MM1gHLk2NjdgJMl+Qn0lTDcytm4wH3/3+eZ5T/oN87w3fIxyw5SlZ/dmP6f8snyt7J5z+yF+1VxwtZ330fPNGmIxoUoqbtn4+LR532W4djD73FgyW4uVwPI/HlyIivEley29z+l2Z2ZSdaO9ztQPzYxbtNk8zki8/rL8nvfXGDNs3H7RfAr/sP2Fq825VF2dwN1vZKZt8Hv4pQ+gct+1UX9+H/K9mZPNd7m2r0c57PWF0p4++XbzcLRJ7MxTxHm1ZZ53e/S5yOaJ6VmFfx947XnFpT+Ov4Pzccebcy6HIZYbn/lnV8aAaI/2+5s+m5e/miuFLfn5AN+4faQ9H7vGF+xeHpqP2bHsTM/se9jFaIcpmplKLvZMjTM843Tj99n4vfAZHPPYvH88McxLMW7teZTA58zjSe38HVnszMdr3mUe7/r5frHXxVsve//9+XKv2GtFsWfoUW4F+Zxd/BxZ33Lo1eZ9MMRwryPPITYPURV4X7c+9rX2Mjxr1X43/v5ptN4rP4hc7jv2T95gnvfkp5nnXXAVf8d+8kLzGLdm/jnhmJF78DLzbJuL9k/kBi3acp7lPs95O3/HXmPedznyX2VeifZVN94p5wyP5x67zwJVEhf6c+M2G3+eq7p8hovd/I+/7fHZGJqfvf9u3LJTn0P889Zf+uBrg/Z8/f3EDlKJ0S9xNTAt2+t+q7wHieWezf5seFjYT3rode6efZ25jzd/7eVyzz6Ex3nXDnGGZnoTnpEetDP+/ve+Bt9dNserXHtQcfto9715lXnFw3gOG85srvL/mKH8zwfee0/xKWxeX3/5h92f8fq+ApacMetV3HZ7xi0qbmHO1qm4ta9vXmn+3nvG7Xf//B/Ram77Y6645Xm3mB+fu2FjV2G75xXmR9+1zT/6orlplZ9ty2vfZn5yvveM21Pfa26DyffdT5v/7SpuC8+4PfWjXCn711fY2FXYnnqxuR0Gqp33vd+7jvbJFbgnkEn7/evR+T3zo7M4/vrKs80PUbX5oy+Z79OzbcW4vc7c5D3n9ttXwFC9xfzk1fxzyMVn3d4rN4lfGT7jltu/YW7NnmvrkIrbV7uK2ye7qtkb/prNUBi36jNufeP2LHPrV2+3l8/mfwb6uNr2xvdzxe8d73+ea/tFy+PMLTeg9e/ND5/ERi0bp6mKW//ZtmLcvtXF8kxbv10qbS0P/Ai1m69+xPwD/UQyG7Xfvuj/h1Zz5wdf4IxbGLL2nK97h41RYQt+3e3zJvPj56O69lTzraji9ltnfNRdq79x1+oPDD3j9gH/jde98dPmuzvl+bZVz7YVdcCgDSpuLZ7if5jI/weK/H8waY/k8dXPX7e/I/b7hHJBI8TQ9Y+bx/a6OS2Pc/S443wYr1XaK3vCeBcqZ525a/sCQ7fv2AIDVotJu873NN2/SsdJ3cmVv/jpZxqv6CjYsVJLyRx1KnGsdfuLaoEOjTNxcU5k5Ab9HItRfDeqnvUN5GJ/KhbjFud9TFAZq5i3dCx9LSGjsITA8EugzWuClnMrI9eljXEL0/bOO+80t99+u/mbv/kambfaGjBvF57lPZWwGZeGzBBlXq9Ea84PNhTTaHM2L7/4wAep7WyQjQuYmjDqoFq/VNyymVfs18ArN0RzkAMvNhnDviHAOnilzg171PapgXF4aX1VyDWEav1AzO7UXlPABC/LjZxsrhb7YqTi9gm/Zt/r5b2VUO7P8M+BC5mhODaaGLcnv8V8HPHFz4nGOVPkmneZJ9rvXzFYP/76U+zfpWys4da94lxp84xbio+Y37oM/7D1IfNb6zzmP9FP1l5tznuQm+OMKhiIPMcj6Dti536RzIVXPkjO6czinAbc+6TQvA1MW2W8BhmLwF6zJEv4WdyhCY2wzJCK2plT+OemP/Me8zSvHefB/yB/nXnbkzhmzuR7wzMxCTFEf89VPWawaUSmGWK5P7OK29xw/dSFuRGZmWFZnhA+p7wiWMh+etvuebu9T85x99w5rrqT+68259p7Lp/He7z2Xc/huMq4feib6XOD/WaGi+Si+9RehzdIZajjDc6wcsZtdh3edX5e3bju+oTAuD1i9873/Ctg4GLuwhm3V5sLqfKz+L6F+NfBmYp07b12MRvRbr+zAvxxhJaj2JZ/ThCf6n0uZA6Tfy68eXSvhuNUgvc0J7+P/HG4B8NxYbu3x+gaZHvETyHLZ/PNp9t7USplH2ceeC8Znxu359L7c5258JnHB/kyEsZz9pkpqbh9/PPfwlVr9s+VWib3CODrqJwvKJyzJTNCc/j+yA3sOAbZ+++1+cYtxb457u/DI7uHy9qz7+r4Pfa+q+16PAdVs4/K92R53nvddyz9zHadezCf6xu3iHdk+MatjR/Gfzf51IXPyq7NK4PxOXnukRAYt9LOZl8T4/baP3m5efhjH59zNv9sdFDh7UP5/Osrbf2imocd4PvM+7PhvEcXx73gMr5nX3M06uPrCaOaYu/aPcxeswzv2mnzaxmksfnrGbf59yaqx4vVyUFFvZ/Te++3rRw1z32vHQfzFwZu3X3ZPxfItNWecZs90zYmr7L1qfuMW3q2rau4veszrzXBs22z9tfZ+OlsiN6MClz388nERm7o/o6ruP2qDWEMB8+2PRS2F55tC/4Lm6xfvcIe58+3/Zb7yWRy9G6+znzvFPeMWzzb9uxPm3+2zf/8qd/hZ9u6n0n+6fVvcc+6jStuf8t8761/Zu5A2/evMzcFz7cFbNwSf/p1OwgVtIjxHFvWm65l4/aW+Bm3788rbr++9BjzT3/FBuwtT/qQM0PDitv8Gbe5cfvDa1Fdeqv5yXmPNf6zbX+AXObvzA8feD8be9Caxtxxiauw1Spuf+d/OOOWzVyquN3lV9zK821BbtwGz7e94P+m9+DOy37NxmzmsjpD9ysf4WfbuorbO95nj92zbamdKmzRrlXcns7nd9u3zK2nf9St7ypuL7iB173yhSZ/xq33rNsC+fNtudJWjn+J0CpvQ+MWKCZoE5ZsjhFApmUpezcHvomaQKuy7RUYlTOADdI02pwYbV4jdq4uBGSOdkKMzWHJDdJhoHWCCtwQbU47/GfcOuM2M1mlQtYZb1KxGpq5+bi6cVbxWqIYm62rqIxrq1X5t5R61yU2bmHK/vCHP3FR/oI5WwbystGZKxtUC67LzmgrVTEkU1o3T3tlqvYxC81ZkkpbNa6bb3MrTLJM7fUZc/yGN3LF7ROdcVs1/omnszn7BqrgLfaLAfqLrvK0Kl+X2DedtX7sBaTm+7Hsu2w9LZbrJ+ZpanxbUxt58Sozp1sZt9jfMvaW1iy3326BySnHo4nFEHLmbNifG7cUe2Oz+UReiftktLvqryvO20NjUF1a0FfxPzJzRSzaPeNWxp2D6ssbzPtedsTGLzH/FT9Za/v3S39WzeXlFc369pr9z8S+bzBX/t4jbV9k3GJsS/XNW7/Stu58UdWw9YC5OqzadSyi2T/aR+2szpQk48lrt9ddTAuuxN1LfTvk3iDDi8cSmaHktRHODJDx7p7DWJ9rP/Eec9ajctOX9uz2hDjeNxuwfE4yh4j38dL8ntsuP5Ns90KVtQIZGV6VrBgyqnH7SHPuR+3aMCrWxdz29uHW13EG0JLFrYFqNvxj9fvOPp7b7XXOlHLxnLUz83s+M5rJuMV4rD1uze9BV9GJf+Q+E+9JOG7jN843F191nb0u0bWja2/HuOuD+zB7T3Bvot1paQ43X0wqfPdJ3nyPiHMzkwzZbF7RzMvv1XCcqr7x6bVn91EwDiZBOG77c9zPeFN7/j0NI5Q+o478s2tjlysGOfi6uXPFT+za9uv/9GVZZa5ABhlUvoepYhbt6M/NqqwaVAwkbz3iumvMhefg2acybtyavdd+hbCoXwHr2vc9+uXmbR+8xlxLn2vvvJ1Ri+vI90seY668/zAnEVO73CtUcWtj/xojjvdjNbuHo/Zn/4m7vxBn91bez+pMMGeqskHLc2Sf+b5kfm5eZRXETv1rl8/PjUW0oRKUdNU3bh/lvmMvMU8/JD/ZjIpbf7xTG2f7GouKeXjRs7x2Nj13rHDl6LUXPdvF++31zM07it384P7x8CtuN576hsR33evy/D0qUM1Dh4zxK2arYr5nUY3qqlbxZ8OzTgzH0zXCucfz+XrifCmuce0wLidlkOJ5upeZK6+x34ny/OA4hxi32ffmy81eapf+/CemM+M2y+/w3ns835f+jH8NjOsmxu0aG7ZexW0MV9jiGOo/21aUDdqs4tYZtnUqbsmg9Spuv/aYj3D1I7W/zhmgn2PjNqu49YxbVOJmFbc2PyptYdwSh81NVB2Ldq62/fbvfNTcduMt5qdo9l9fRcXtEfN196zbr6/8rvkx/bSxMf981Tk2RtsJjnO44ve7nzb/aOPvfJQraX/8alTbehW38etHf2d+/M7/bP5WnnF78n82P/jU180/33x7/gxZeiEXV9vSs25h3NL55hW3X48rbl91b3Pj715P1/TOy19gvrHkG7dxxS1wxu1tdm0rP/3ye8yN8qxbV3F7K5nedk3EMGxRcZsZtTBl/ThVcZt6xm2i4naXVNxazdZh0zYnr8T1fyr5jvdLta3jv7ABe8f73U8jexW33z73r/haXXaO+dbO0Lj9Vmb4PpjMWn7mbUXlLQzbQqWtU+8nkgU2bmG6roUGbAn4bkiq/RzTuLmqBVpCaOD6cczI+3fbfqEqtsBobRrXYteeEmXTtA9gnpZpFVXzK3XnKh37FbaN4xlQNGKbssK6w6ogsZi6nfvZ9AzGRHTtz4BRq6jMZ/O1nHhcGOc/lYzrf4xfGZubrc54y46lrx1kEk6MCzImi8YtTNv/x//z/zQf+W9XuxZ+wZy9+7G7DAzN+uimwGaDTbg02py+4bVgCE6MlRe++CWE30Ym15yB4XY/Mk/1fkH/qWQd5MOLzVB9jBiU4U8zl1Nnnxqyd60PSEWu1hcjxq3Wp4HzlDlsnOrjGP48iwnL17r4eY+pqrYFjYzbHn4qWczQ0RGZsSGhcbvLq7gNx/kVt2K4cjUlGZQKT6SfNbzanLchbbFxC55v/isqrmzbfjHLyMR1/WIKkHEbkfWdad6GCsVPvt38CvV5xm08J2apGpi3qLZtUmmbYdeAcVqJHTtLgp9KLpBX3D496uN/MOfq1by9p4pbr1p07f7P56rTL3zInOUqY3MzTPKEPPyteH4t781vX/s9VLZ6JuzS883F7p5b8+45f86z8fw5ryq3zLi97+/gmdDIzznEcAmN2y8aPJeW58bte21sya7DS/gfq79sz+VMZ94K2Zxn8j0vPwEdGLfROiMlM5QQy/OB6ed4vXFPfyf9RPv1V19qXvHsx5nT7o/r4Rv/7rrY76Rkxe3T+WfeK3M8icdR1aFry/eIeOQVt7+DON/j0+25F41bVDvaOPv+Pj4YA4JrafM8z37PYuynLnxOYN7ip5KJ7HvYxRYYUwVT0Tf0nHm1/dBp5tkXc1Xd+845wY0bN3wdYawo/fE5u585/dJ1HzOve8FTzSN+6T4mqyT1jFr6PvZiIO9/UFUq19oZnzsK17hIdg+Xtb/AfVe/Jn4PnHFLP7O7Zh7+tmvsHNxD/pg1s0Y/GYv3EPFp7h68xDzNGwPye9A7J7kemXFbbOfn7vM9gj712nj4a44C9z7BdMvbYTKC3JDL2s7TK24zg1bwfyp5GbH7rvvkZeYVv/l4c9oDj9px7j0k892b2yOqedgBvjfdzwjjObG4D7yfHCYaVtwWDNpUe8Ig5efp3mCu+pPXmqc99tHmPodsO71Pfo78O+65to+/N59r9tr3hsxb+90YGrdlP5X8LPNW+nvthebR1KfvS2UJhqwYt56Bm1XesnmbV9qKFqlVceuM3KCydk9ecfs1ab/m1TZuUHHrGbfJittzP0e5f/qdL5pbXvcS8w+nP8yOu9yZgHnFLczb7/4ZfrL5NnMXmZtfN7fYv1/BvEXVLczbv/8Q/rsVBuuzeI9k4h41X1+OfioZMZm0zzb/RHu+3dz+jkfatt80t/w1KlpvMXdc9cfme2f9X+bby7+Q/1RyVnHL5m1QcQvjtlBxewEbzd/9S/OPVGGrV9wKfsXtzTYHDM5//jSeW+vM26zi9u+ViltnlJZV3FY+4zZdcQvTlrRGxW1o3LqKW5i2WYWtbX+PH8O4/QN+du937X1Fz7qNKm7f/jeYZtc9g2MYt6isjTWqsK1+xm1u5Pb+U8n2c7wIBObnIrM7NFqHIDNnk7CpuQiwidqBnbpROjbIJO0EG5ObAlddq+LG+IZsO6KKWzFWuUIyNPWWVmAGRe1tdfTkRtt80fbWL3hfidXwGbdi2h63Y8n8y3/5s66VX397499Tm5ZPx56Lzc8Kk2rR1ZLSKqrm96RU0WqZpzJrSa2bZ7MpqkrxgnEr7WNBTDetzyeruD39DLVfwDnKq2qsGJTIjWukjQHIg7EwWOM+zCNDPGoX5NrjPLV+IMZt2R4EMWG1PgF5sGfJi5e29xT+nnFttDGCvC9l5wfqvs9A3sMn/vqTbGw/tyv47KaVc38uaN9F7B2fev9oWOz3jFuKTzd/4J6F+B/8cb/mnnH7Jy/g2D2f9kufeIv5JYxZxjhfXZ5Pvt38ctaeG7f++Mf+0XVkkr0D1TxWf+uQjLfQP1TjH2zz8Zm6f8R+3+X8j8l/8Azpj8zoeJ6nqN6lY8cQ8U63TlItMG+HVVmHNTNuo3bRx/wh/pESz0XM2/Vn3IK84paMXGqzuuGeo3jV+eYkxGi3/fuyZ9yeyuO9/7HAny8GCVUI2pjNDakkzPNl67nnMH/qD0/3+o+4Z4Bebc49OR9P52fvtQtRpQuDdoPbt2Oe2zeevbzm8mTG7XkyzpnVH/0Qj/3Aa+w58vzMVJB8mbHlYmq3ewnabexdh+0bzzHvIOPa5nHPFaV50T3/Nro26M+rRbP8I1f/HkS875nvofePfiJ6g8c9nv6x3F6jZyJeo7Yd7n8uIaMHsbQvewaQ1/6ELIeMs5rlsPesG8f3PJ4Vm4/z94jY/1zIvOLnws37wofNC12cratp9h0Xtuf3kT/O3muXvMTsy8b5z7jlcb+C71O7x//6HMRr9nsGmu/xNxFnzxd/tdlP/TLOAg3MxRPM07OfLH2U6/eQ+1jMRMEzRrgq0s8pbfk4/PnEc6XP9Y8szr6XqBoy6o/PmX51gs0lqgglXspV/rgOru2VV4YxOOOdbOy80mvb8bts6rzjTBefGV/j4n75Hr7BXPwiuwfpP3Ru9ozbR/gxvqu9+fuy54U+mNdzfw/41B+dwTHyrR7Nv2NP4fyPcffgxbgHs3xn5M+4lfMh3H1xpf3cau0f/TB/x37wteYk16deGx+sR4r9jSD273HpX+HnyvoVt1nbee59foaLs/vKxULUnn3XPcsbc8pb3Xfd6/K2HtEqZoN41Y1poLlxy/Hasy5xfzZcYp522I07LPfsG8x9vfn+M25pnHxGfjfan3ftwv3n70c+/mn8P0rZz+jTZL7V+7wefw7z54/n+/9zyonmad5PPUt+ITNu/fMH7r3P/oy39wCvF1ZmSz6aG8f2e5yraZ1Ra5npM26/89/Nd7yK2/gZtxzj2bVcacsVt/4zbjeowlaecXvbHz2UKmth2sbPuP3eNc4U/T33fFvwlE9QhS9X3LI5Kz+F/NO/vsJ850z3M8i2/x+yilvLKe8zt9uOf/7MddSPn03matvIuJVn3MK8fbU8L/cNNv4Am4/f/Ji50f1MMipr6aeOyRBu9ozb22/4HulPXuWedesbt5XPuH2suYl+Lvl2c8f7z7J9qK69n7nxnX9t24y584NdnnGrVdzWfcbtFXSNzTc+Ue8Zt196v/l2VnFbfMatVNzefgNcWxi4MGVPM9/alRu39Izb0/k9159xm6i4JX4pBwZtpnmlbV5xyz97DtO1jvL/zJGGxo1K8T+dFGOYnmLgLrqWs5d1dwf1gFHbJibjtA+FSVymZfN7AOZtVw3YuTpAzOYrjrvoTNixMrjSs209TXE3VwEcazCmJA4rbpedaSv4xhvhtw2JrJdCm9MULe/WRMxbMW590xb9P/Nv7mY+d90XqA8/n4wX2u5+7O5CriQwbhedlb2LwSobhBPj5Nfczwa/aBMYt2KgxiCPvHBcZdoKmIsX8mINzBMzFkg/XlpOtOEVz4diPvYCykxZ9Mm4eP14LMbg5Z87wPrS578kZ5ynCtkTXsiPvfjnhnPFmnhBtRw+yFVnHMBaeJFxu+IM2hI4tzNuHWx8jhDvHw2L/a91Jmfe94tU3fI35vpPXmp+/5yXmxddcKn5OP6h+QsfM7/9MIzZaznePIP+UcrO/eDbzXmvOd/ydvM+O+c1pz/H/KcLrqYcH3/b6W488IzbrM3i/jGYTIn3viTsc2bFFed5bVEf7eHi55gDWZ9vRnvjFWBKzgSslYLMvKGB0ZMTGlIKJ7+GK8W+cI25+IKXmRee8xZz8Sfwj/P4R8hHRuM94zZo32vOoH9Itu/FB95uXnnOy8wr3/oxcy1+ZvCa95inO3MuMyzf/TLziF95HPGE57/dXEnrf8iZX27PVMVoz0fliHkhnl9r9/jxd7/FvPJVrzGve/c1dB9+6qLnOLPL4UxeuucueUnefq+Hmueh2vaG68w7ns97Ic7mn6O98gJ7/JB727HunJHjC1ebcx+a5/aNW2pzxtzFz8/HwKjMfvbUGbd5xe0zOX6oew+ckZnP4XVxz+fnFBq3i4B2Dz7Ynh9999h76cFoc5Wh1374LeZ5T368efo5bzeXf+aL5npcFzJo1xyYn7gPq3Kc/FTz9Oe/he+3T77dPCbL6Ru3ru3k13qfi5dHn4tHpeeV4d5TVE367aFxm4+T+/uF9rtZ7u/rP/Bac5KMkyrP1B7td/yOzIy118V+f7/wN3FdzjcX/Mml5lyqhvRNVsSPsueEHPZz8Syuesxw93Fo3OZmVdG4tX+2P/bx5hHgyS81F1zFe3vf2TJu3ITGbUR8zo+9kEwzVEC+8j883jzhBW8wF3/S3nuqcWuvy6/aa+J4If2U8dXmdV7bI97Iz8UuGLe/69ZT4HvRkt0Pb7V7cPfDqx6cjcu+qz94of2ufrl55duuct/V/PPEPO6oeSGZtPYe/JO32u/Y15rX/Yl8xz7X7HO5ivegXVPuwd99NO89o8K4pb3b79iH532lxq3sYUy4++L6j77LnPuaN0RcRn8WXf/Ri+3xS81jVvYnjduPv/4hHAvZ/ebic9i0vPbDb7XfdU+wn+kLve+6oYzbfWxCJBBTsQmBces4zV4T+q6z53Gaa/Pv2Vec8wrzCu+efdohN9ddo6te/+Bwb95nNWhPVLaeRff9F83lF7zUPO6xzzVnYa3r+CeR8xy5cXs6xf5PPYeVwXnFrd3jao5U8dJ5Xfxc/qllokHFrf1zgExb7Rm3pBp5la1P3Wfc+hW3eN31139ubn7Xe8wtn/oat30fFbaowF03X33KZeYO/Kzxbf9ofvLR99hx/9385EZqMHdc+h/YyM0qbtGMcZfYcZ8wP/mOG/feM7kC9x3/i4b89KufMP/02y8xN73r0+aOm2/jn03OKm5fyaawq7JFhe13Por/1rR5/vS5WcXt15YfYW7+n8iG17fND598gvk6Pd8WFJ9x+91XvsP86JswZW83t/8RjNz/zOvc+T1z2yVvtf1/bG69/nvmrtuccVtWcVt4xi2/7rr2AvO3to0rbOs/4/ampZNs/AJz61ex9q3es27fxJWptu2OT37Y3PLOD5sffwUGL/KiOtdV2Drj9rY//G3z3ec7/uD/pvfyziu9tuf/Of8Mdt1n3Fpu+gu33lc+a2696Apz6ye/ae5Ckps+b75v/3vff8Ytru0/X/cX5paLPmB+dN1N/BPQX/mo+QdU23oVuHjBpP02VdsqFbc7zzDf/0tZ93Pmh5f9meVz5va/v8HcUqi4zStvBa6wFWXzNn7GLSrdYWSKuVmFjE2hzZk12r5iyJTcEoRGahvYGO3ILjYuW5MZtCVo83omMEnbsnNoVtm0HD2hCTpPyKjtim/cFs1aV5G5yuRGXN7ft2I9HPsq5O318+lald/Xva5/bxbHOmx/jsSxdup37y0MJBi3P/nJ7c60Xc76jt2xZP5f//JnM9MWr7/5m69x1S3uCwE5E7EYVJoKi92/RrFqpHpUze+jH8c6ZX1g6tfbhX76f+30J9FniI3bvJ/fP6jEeR+Agfanl15eAkzDPIaZ58+vyo9+Md1S/dIuxm3qhRzYg3+OddaHIreYlNoL1yE1//4PPIXWTc1H3y/aMan50o59xznidaFl+0QfwLXAOcFkjedDBe36oI1Zo/ll1x1roT+f4+Pn0ozbsN9vz4xbe9/uXt1HbWUq5xy0r4wU9w9U+AefYn9u3Prt//5Fl5gr8XOyto/+AemqS8yLHn1C1g+Dd/fKo8x/+qOrzafwj4Iy7pPvMq9z/5h2/Sfebp5xSAzifC2YJRxL32nmvKswH1Vie73xVp1ZccV5Mt7rFyPjukvNf7Lr5P3ROdF75PDjbLwQxzHt+nOTFlVtfjxrZH3PWKI2HxlnedhLzDuuwj8u8nv7peuuNu84+3GhAUqkjVtUBD7h9z6W3yNfvsF86gPnmzPu5Y1xhmW2juPaT37InHt6/lOutOes4jbBxuPMCy+6mv/xFnm+cJ258g9fwiZgwKnmXHfPcfWkxZ57bo6VQOeZG7cff70zsjHfama4uTg35lwsiOHlqmZ3uJ+99M1XqUJlI3MtN27tPf88Mr6dUeaeRclzEUt7rG7OCPr9ezDvPz4zFMkIWn6UeZ7/fuIefNGj2DyC6Wrn4F7l+c7oEUM3ay/PsfPJzsT//DXmgmedwPlc3vhzQu3q5+LxXLnqxqnzUureU3zH+e1Pyu4jf5y9X85+NZl/tDY+Tx883zzBfv/5ecv2SP3EfcyTft9+Nr1nYV5/zYfNKx+LPLFxazn03LwK/OF2vv1zb+eKxasCpdi2k4Hmm4rU5hlxPtddY973mqeZfTJv5LBp6JmnPoVzPmqe+JqrzKfk3vvydeYKe66PwU8OO+N25+p+Nm79a1KKu9Z2XnG9IlLN+8Lfvsx8XP5Mt9+Llxeu+VHzBOzV/67+4BvMGff2xtj3d8fhx5sXvjP6jv2jl5oHB7ksD39p8R58ib0HV+2+bT/tn/TZfF9c+bpwvne/fPz80OytrLgVsN8xxO59yq5FEjy3116X83Tj9lq/KtdrRzXpjtUDtu0x5nn+e0PfdY9x33VDVtyWsOpRM34FfR5iU1MqWO2fDe98nlmj8Seax6v3rJuD+e7aX/tOVKq6NpAZt14b4Ve2eu0Pe6m50Luf8Xfi5z3sFVT1m+d4dl5xK+sffp577IM9n4fJOPkfQFzFrQXvH+2Z3ns7/rrLzPPEfCYS+4qhdfexYetV3MaoFbd7fGWDNq+45QrcOhW3d1xxgfnh19DHr7u+/Vnzg2e5n0TGM2+hz3qn+fGN+Rhz87fNj//4bPMtZ9pmz7i9+XPmB3/yRfPPP+Jh5rZbbP7zzN9SBS6ecfsfzQ8+8+38ebI/snn+6DnmBzBgXcXtP9JPJBtz5xXPNfxcW/DbnpnrKm7B+V8ic9B887+Z72TVtl7Fbfy6+Xvm9stfkz3j9m9f9jFzh3uOLl53/fXHzPdefI35Z6/iNvWM27Di1r5++GXzg5NhzioVt1mlrU9o3FIV7oPeZH6C/dxm13kGV91+40H/xfzwr2/Nr9ltt5o7Ln+9+TsxbTPjtv6r9jNuSX/N3HTZN81dMNfxuvN2c9dXPmFu+mWuvs1/KvlW85MLP2Bu+3uYz964B6L61hm0rjLX/PAG84MH2HhXseKWYhizO88xN3/yW/m69nXX33/O/FNVxS2MWbXiFsd5xS0ZmfYzKBxnP4dlmo33dTmPxTidq2KvpMX9sdpxS2Hl6iLH5exl3e1iUWF3jf4kUb+YxLQmyPtVo7Uh2ToJtDkFdsGAddoihvGK4y46E3aWV9TW6cfx4OxYcTpcXLfiVp65m1XaKhW3ZbCBu2yvP4xbMjaFPbnpR8YbH5MZNyDBehrR+DZUrgFk3DzR9jUgP/MzP2/+xf/xb822nblpC2C8/sz/+27mL/7ic+6Pc36h7e7H7ab+MjgPTInNQmi4+GhmrU/V/InNj2rc7qmmyiyNXzd++9tqnjIwh4xbpW/W3P9Bp5hfO+NJ5kVnv4QUsTYuhcxtOx9IDq1vFgTGmgfMZxipMFXZUNXH9QcM2C5oOTchKzAo++Q08/t4Jt518vPM/VAwbWNoHJurQxKap/PEN22aw6ZbGrXSuGe0dWO0eT40bsU9CxQ/b2uvDZmuQMyxZ3htGZ5BXehriOyjE3hPtgba/eijzQlQ5iwcnsGr9mfsGx77510VOyYIvh77B0ZfG7ApXMPknAH63n30eZuSldAAFSOPjNu6rFagzekZ1Tz0sfsYDdr++kRbM8Z+f2pjyXiHeRvnbIpbIzduPQPX/vdWQb3qWp240pahCltn4GaqPeMWhq6rtM1VQwzbnMw0xvNtgXvGLethq2zeBkoVtqI5/CxbUTZvQ0XF7Qnm629i4/bODz3LUKUtTFt6xq3TDFTYimrwTyUXyStuQ0XFbc43MpXK2pRqBi7gZ9oW1H+ubQAMW1EN91xbH3rGrauwFc0Iq2yzZ9zSM21F3c8nOzj2jVvlGbcFpMI2BgauqIarsHVKxq5XaVv/Gbe5gZsZmsQ+MmjLYCM0DYzTeaPtK8Y3PxeZwGQdit26UZohJm2SvWyCdkRd20ObE7CLzdMuqCbpGNmZG7BtIeNz0dnBhq1PbLgKZNgqaGM1qOIWxq1d9xgyNWG2BaYhm03Le6B++5CIweUf97m+zUXnk8PnNzbcXkviZauE23+bmDQ+/yjeubxKVbfyuuWWW8zHPna1+Zf/8t954739qbFHz/GyMzqgQjHGPF318cU4MNrk2EL9XlxJyXxeb59bf18hpnHeeJnjx9TvQf0lDNLv7Se1P+38xhq3J8wHMxAvGIJx/1JC0S/GLebd/0GnkhEp+oAohvnKxm0+vyo/NDdu9f6q+VuvfyuAc7WsevQdW2DwjkGJkv2WzWdgfvak3nPzao1vpBXnsYJxloGUTGRoBTu76or9+0upbhbs+UCXEyr9VWT33Olhe2bcem0ZeUVnsa8dVMnoaBMz+7aAWuznNa018pTOH5lqUGXr35grflfpmwtstCXjPb4hZ9msMXQG7NpzoFQJZX+ZcZvon2lsqTyPsvmLFNfGnrflSVkVMcc7cT3kuA7x+CCWdfpVNoi5UrSLUh67X8k3VFx3P2210frU78CxIP1JdeZsAlrL/jnClbV5xW3bZ9zmCnMWx2zSFskrbsW4ZdYTOIO2oGzO5s+4ZeM2e8YtKSptc2W8Z9wKMGrlGbcFhSmLY1dpS/wy/1TynV8xN59y1MYaJxZZPtF8gypuf6GoMGYtvjKorhXVuE8RGLXybFv1GbeiGvdL8IvEN6G7fWVzlp5tGyiqajVQTSuq4QzaWMWojXGVtHe8/xQbF/kWKm4tge6EsjHrKz3jlqpqNVBVq4GqWlEHDNqg4tbiKRmZ9vNHxq1oBfifLcq0E6iOtd8FtC+KoXHsxnYBeSyx0Vs3hlZRNt+PB2UJBm9Ca/aLAesfN4/3dtSa7HbjNYV521V37bHHzshtrcjDOfVYxiXUAnO2VPGTyb3oqlVn5vYd2zVgrvJxHzGbtX5cBcb3hjNwcZ7HpKs9xSCL2xcZOacUdcYMTbznIpkR25K664Cf+dc/b770pRvM+/70g+ZpZ77APPLRTy5U5+r45zQcbIDpkAGhzAmI5sRwjuGBSVSGNmchoeuqn+Nm5tfOeDL9pftFZ7+UYjKFavCGN76Z5mG+1u8TGrf1CY3biTTK/bxpsec7AzLDcI5o+/Lhcc6AHIzTzJkveYk58wVvMVfg5xvx/NxTtXFzZqUbMFVnARtUE+WcZp5+9kvM0+09d7m75155Sm6EEp5xG7QT3k/xFvom2sLvzb4JYL97k4zOuC1nR0fYHFoAYNhVoc1rgpYzRptnyStu9f6Zou07RpvnsUO5V3y0OfNgh7K3HGewwbSzwATNjNs9B+11sLj2Lkj+eaMZjD7anAkd7frFoBKaTNs9rtqWFNW1OIZqoLpWo1htyxwwX7VrsXLVbV5x+1qD6lqquC3outX1QPOKW1Hmlq/iXwO+Zm4JKm1FUVWLY6hGWHGbwxW2AS++0Nz8ureYW67/HlXb3vXp15usAtfCetTqUdIQNm6LSIWtxxIUFbaiPqiwFdXgClvBr7jNn3HrK55xa5WqbDXul0AqbGNQYSvKJi5pUGXrgwpb0SJ5ha2nO9nI9Z9xe8f77DHinadwe6HiVmDjtohXZbvDV1TXimrkz7flSls5/iVCq7wlAzE2NedKaGyqYIw6twFa3oYEBqmCNidGm9c7ZMS2JzNFFx0Yo13ZxcZoJ7S8PtqcCDJBy9ipG5WbEdVEdWjjY7R5BfDTy2XYMfKzyrj+bNzCaCNlMysz+VCd6NpyM25Rlc9HzktTGTcOKs6DgAnWLpY8ZYqq1GN3LJt//W/uZn7+HjvNtl0rWXs9hQEwXMznY7F/AVe1Lqn5QR4x4fzjIeIq+l5v3vF4Wdnrjp02jX1i45aw42AIlqlv3FaNF+O2alysYtzWHb+11X4H2eOczRzvH1gtqwugFjF4YV4OEz/N/AGe+3WD5bqrzZuedbRi/JzilTVqy5A41kS/ZrLOj32uAhhq8WOhS7899o3S8cVPNW/z7rk3uueZzo99ngpbMLb3DsA95Bt/WzFm9uuaGbeJ/p6UjSeOeW/t4syE66LEAdK8snRc8a69B+g4pX2sh+OydWSMNl+M299O9M8yJirOg+dUUOu+GQFl+1y15+qxyxm2UIH6cE1IW8ZDY9cjU7FEt0MtKZVxk9bT0uuJcSv72bD1Km5juMIWx1D/2baibNBmFbcWim1+nYPVFbcwZjN1Rm1ccZsRV9w609artA0VpqwoV9yKBpW3BU4wX3/v17GQMXfeZu768vvMP1D17dEEzpgtKMxYHLNJ+w3fsKX4XlbDylvWvMoWP5ccVNwuiaLS1mkGm7RFTkpwvyIwal2Fbaa+UZupXnnLz7SN1auyhUGbKUxZHLNJW+TkkOynkk+xsYYzZmMlk/ZUgypbHOf6YE+52lY0WXkLw7ZQaevU+4lkgQxE+xkkM9NX+32vtlvdvmI/t04l9nVrYK8bwPUTCrE2L4LGOh0gVo3cNsDEJZVKXD9mY1QqbIfSPoAxmlfQtoilMlbIKmUjrdtfRWr+Lhi48szdWBUjd7OyE+ar00R8TxeLZv2ZsvF6911OU3EtVuj6H8OGoI+YYs7AE9Ns0XHnU4Y6b2Ro++4bes97YW1w2Agcmn0TE51QjdsaXOAbt0q/T2bcKn1lZMat0jeRQ0belgIG69Bo646M1QkBBm5X2BQZkrUaaPP6BqbcAoB9zh0YXBMTIWyezp/MeJqoJDMkS9DmNUHLGaPNGxvavn3IdFTmbUpW7bkKdN4Hicy0JaSvJf4aA0FGYQUwFMvQ5kx0wH6H58atZ+DuEXUGLtT+nb91xa0HzFtU3sKslWfbSqWtPNtWKm51YuNWEMMW1bW+oqpWVEMqbJ2Bmx1zlS1M21BdZW1BjxqqrBUNKm1FNULjlvArbQuKqloc+1W2AJW19zZ5hW2x4laQittvuIpbqqyNtVBhK8CkFdVgwzag8hm3omzehqpU3JJ65i0921b0FKsaYtjGsIHLquEqa2ONKmyrn3GbG7lkNtrPXl3YsB0WMiAXATJIS9DmxGjzeiQzXrvgVd/q6Cbp+HCm58LD5mwZgbm5mSHztRwYtj7FMZoB2wJXeYvr74zbvZbw2akMTCs/tsTm4ULFcj6aOla947nEsldHHFtW3NhuilxD6gzYu4+gSseh1P5FPdf9U9wxxjGrEMcxm6P/1894ChmwL37JOUE/32dQiUO94E1i3D4lMS6f/1ln3Kb6dc2N21S/3r71+hl7L2f0Ez/g5FODOO6fT4xjy54B1cLmaGzm+oyl31dhC8arfsxGLGkUl/XjeGh2idr1cFyIsY9VmDKubYB4kWCTbN6Kf7yfYugu+1kj/OOtGHvsnnPcnQNkHrXWksrM0WkVdfOktIq6eeatVWCcBcZmqHG7xCmtmj98fzV23CrGhobtrr3r2bG0t9Ysv9OBYjYMq9Rix2fHhbhunkkr1f65wtW0zqi1zOQZtyrrCZwxW6i4hRm7YaTCNtfDnoYVt4yrrvWBYRs/2zYDpqyoxtEEJ+bAoHVafLatKJuzvjKopg0rbkPukwODNlNnzg70jFupvC17xm2uXGnLoKo2qrgNcJW1dZ9xS1W1okXk2bZC8hm3GTBnWUNQVZuouCV+KQcGbaZ5pW1WcbuyP/gfUlBVWxbPBKro5WPaH8W8zzzu1g/dEngGbGzkNo1LgYE7qKLyln+2ua0Su30j14tjTfTDOMXxkNoIqcAttO/JFWMaxqpJuqDQOe0MlQxd10/Y+O5WqcqWlNs5dsZshBi+QdWuBdcxqriF6bZVUYzBuaHtz0ebs0Wxf7EelD2eTnQGJthWJG3cluMbt1q/T/5TyXp/iqziVunzecDJp9FeMF54kT0f9F162eXU74/H3oHEOAd/rr/mhX98kXnSbzwtmyfrYIysAXAsfXEOEK+Bl/RhbLxHAWtq17h4XfbRWJxv8D0RgQppfwzMWezHH4M8aMM4rMPXKu9He2od5ONz4xjzkQsa488DWCdeC4Rj7bnu4etJe7DHD334o8wHPvhhOpY+zMFLrrf01YXNwYnFITRmm+Kbq5sdGHITTdg/IdjP2gQDA3WeaHtqB5tZrYlNvYnNj33fdZMzp3CfRLCpqM8dF7JXwEZrDJukXfDXGA42DCdGg/0zlUzbPa7alhRVtaIaUmEb41fZ+qDS1ukqm7fZs24pbvOMWw02bgmt4lattgVhxW2Oe65tBMzary2LsnnLz7YV+nzGLZu4XGErpCpuGamwFfyK29k945bN21ClwjYmrLiNKVbaWvWfcetpXnGLY6gGG7dFvCrbwjNuvUpbUaqwFc3hCltRNm8Lz7iFuQdDsyYwPwfH7qmMgjk5kaavqtsqlobGGahd2d0VGKzdIIN05GSG5ibAr7YFQbUtxli9O7DHKp4pWwdURB9DZq0lNG3ZFJMKza0T7xtZnB/78Yr9iyaOOykBI22oGMcjYa1CKwlNuGGJ15v1+jNgbUG0K16+wLhFe01gsOH16096itrv89nPuYpbpa8MzMFcrc/ngaecZi69/HK1D/uL++KcOHf//P3+d1zExi2Occ7+OOxPzj/OEYM+zJfYXwPHOAeJfTBHu8bxOZCZa9uwJ+Qig9O1Sz9iMjzt9UD8ADtO3hfph+GJvfrzsQcySV2M+WSmutifj3HIKTHGxftBHM+HcY15aPfzQXGufryy94Azbq+w8QHzsEc8ynzgQx+mY4AXm90c8374GGB+dYy15qx72JSctI7CgOWYaRHbaw5DhLX/eLdoKTxnaGBIso43Ds2leccTwu49MF62tuIe3W2/p+l4jgoTravu2nuwB10Uhj6PofPPiqrzgFrsfQiFKViMu86fTYzj3KCNFeQGKxm1UmkLdWR9jjbxLECVp6gQxjAUy7Rq/hRLvNPe5zguU1QyBz+RrKBW3Nq/n+TKBm2h8ta+ZzpSYRuD6loHDNpMYcqKWrKKW8GZtI6w8jasuGU9kilX2voVt17lbQE2aYscTXBiDgzaTGHK4phN2rziVvReVsPKW9a40laQCttIM9ikLXJSgvsVgVEbVdoGRm2mqcpbv+JWYq/KFgZtpjBlRTWcSVvglATOmM0qbSVmc9avuGWFOSvK1bailRW3MGbVilsc5xW3ZIbGxmlHdqzy57mNavlKcZW1TWOYmlJ520a32/8+K8svx+V5FKN1CMi85WOYrE3jMXEsTFwcO5U4Vq1fNXLnBUxgq/d0KjEUbTBP+RhGaqz1qDKJS/upClcM3PAZuuOLy+EqYsfOMI7H3j2lO/mZuCm9h1eVi+tHxq2gVXWS0bdJkHNKweP2zZlwz4Ng/5I6PPZcNg0wMSZ6YW2/WV07MHrUvTfEz3f6k3LjlvLX5II3vYXmsamojxFgvLFBqPenwBw2KPV+4YGnPNhcevkVah9AHozBsTYW58KmK8f+mu+46J3mSb/xdHUc8sj5o93vi4n7/TVwLPuLwZraNQ6vCxufMFiBXwkck1Wq2mOYpGxwch/mSV8M2mUsjlPrICcbpXkcVxMjJuPWa5O9I3c8PhwLUzM0bh/qGbcPOPnBBaM2jheF0FgsAsNygtGuTxvIXB0K5Ld/lypHxg0LDKiJieY482OLkxmoCw6baBMTLYg+EwW0OT7anDmQG7QpnNFm8c3WzLiN21vgrzEkvsE4MSx0ze19ngTjVn3j1jNw9zjj1lf798Ny/CrbHJi12bNtRe26MGupstZTecZtrhqxcSt4Bm6h4pZN20CpqlY0ByZtrmzahppX2lKFbaZHrTrTtlBpK6rBhm0RVNWyaRtqXGEbVtqmVTNvwUmGKmtjLVTYCjBpRTXYsA2ofMatX2HrV9qKhubtPJ9xS0auV2lb/xm3uYHbt3Grff6bouXtm21knrZHyxmjzQthc3RoYMJ2w5mh8wYmbAcy03Te7C6nYKLOCTEzFx3fqI3xx8GkTUImrQ4btzj2jFv/Gaow9UR1My4FzK01s+p0rDERn5sX8/ic+cbdz7c8rt5PZaVqle6FgdVB10TRVqbxeNZVq1WUzWfV5/UNn3MaHgcT0J+3iPFigPcee6Z7wNE8zvPFxi2xr1rf6IxbzK8aD5MR5lnVuFgxB3Orxj3wVDZjU/1vfPNbaL+IoS9+qTtX14+5ME4lpjVdP4zbJz/16Vkeuk62HePpnNw4MmajvL7SGnafEvvnhWN/fV+x39OfbK9x1B5fFzF4NWMaY+QYY9CP+bEhjHbNJAa+aS3jcP7+GLoGFr9dzs0fhxjtfpvEsj+tL+dgMO5hv8zGrfRjfX/NeJ+YH8ZFYJzOW33zupx47CxjHI+B1P6axaiORcwaxjldY8uestiO7xjDnMUxDOM49g3crQ7MSF/1dr5+OVs0xn00kUGfK1UPzrS/CPen8fvtsf3zsLMuCm6/MA417UxV/r7WGZqK/SMux95bHefr7UKf/WzgcptrL8QyFsCwxbnkFbd5X4Jg/kCxB0zBQpsd55uG5fGBKPaOJxqwbnauWXBMau8VidFnr/NX9sKczStuF+YZt3vYnB3sGbeZwpTFsTNpCxxNcGKRZeUZt9mzbtmc9ZVBVW1FxW0MjNqBn3GbK5uzWqWtDqppRTWcQdvzM24D3ak849aqPONWB1W1GqiqFXXAoA0qbi1Ov2YVxi1+RWC7pahsovrtsclKlbJxW5+sam1sjG63fWKS6gxtAveQf8VDiWHw4pi0VaybuX0DY1V+lrmt5iZxSrsD45SN3PJn4qb7XS6ncaVvdf9aPWDilijMwdzkDZXGuHFVijl6e2jiJtmV0Br9VPHbuR8GrGsn2sRsvIqmiPspdqYt4Uxc7OsYMi67YP/Cs9oLbBzqaOMXFe38Niv7O6Ll9FibBXYfExMdCY1bfYzGG9/EP5VMxq3S7wPjjU1OvT8F5mCu1ueDn97FC2MFtPljpE3bB15+7K+Jn0p+8m88jY5xzrInvBDLOFw/WRv4fQBt/p4Q+8eSF+rPxTHaY/g8nHFr8WP0kxHs9QMYgjA88YrNUSDz4naA84N5i2PMxTgxcGUM9uAr0HIiRrsf+3Nw7M9BjPE+aEsZt2LqYr8AL+ljwv+RYSuTm5c69D/oKPNy7PXcO3/YfJ0F+nXqF21dhgzaGgSVvk3B/DpocwVt/MSCc6A79h6eGBkw1CaIwAwbAG3NGG3erNH21RQtb4w2r1eUNSfaERqSE71g/0z86F5U07pqW1IX74FqSIVtjF5xy8+yFeWq2+AZt6ttnnEr6liBSoVtrKiqxTFUI6y4zeEK24Ds2baibN7KM25Z+3zGragPKmxFNbjCVvArbmf3jFtRNnFJgypbH1TYihbJK2w91Z5xm3GKi09JwMZtEa/KtvCMW1GN/Pm2XGkrx3HFLetVdg9F41UMWg1/XAKbD4ZhOTA8dVSjNiaaMwzavmO0eTkwT8vQc4ZoJmn/FPfWDC1nQ8ic7YozTUcOGaQdqPOTydq8AMrRFX1tAQbm0IQmbFvYhO0Cm7b42eRV2tcxYry2VWJNdF/LGAZZBaXzFyiuCxmT+51K7HRosn3A1PDjmLJ+NkS6o+UWtPETY2fPvgNzB9WTs1RUc+KFatE640VRfYoX5leNF6Otalys33aGXdW4B7mKW4nPtucSr4f9Ih/Ub8d5X2bn+vmwpsSouH0KKm7tMVXcuuuE88Y8yYd2rOvn8TXej39eOEY1rsTIK+sg/xmouLXHe/YdzJTnc/ygUx9C53/Gk38j2hf3r3qKfozFfk634/3+z37uOur3x4tiPzBvYdRhPozVzIC1Y3xjF7nFJJVzkxggpnkuvsDuFTlhuAL0yVrAH0vY9cScRfywR4bGLfolB8b5+8lxpuOWjnPw/OB0nJovx1LBPD+FqUnHToeIxwObs2TyOpU4r7rthm/CanEdyubXjve4ykJ7fmQy9R5braDf9RY3hnYFOUWFMcZL9jO/ZL9XtoTaP9/52LGgsZh1S/vW3TFr/Xg2VO1nPGA/625/OfVjNvzSymOG1/mTVe4mtI9K7LL8felOqzvtWpP2pQfNi+zfc/yK2xiusMUx1H+2rSgbtFnFrYVi+2e3jlTYxqznwJjN1Bm1ccVthjNpHVJ5S4atq7INFaasKFfcivb+jFsYswWFGYtjNmnl2bZ5fC+rYeUta15li59LDipul0RRaes0g03aIicluF8RGLXybFtR36jNVK+8lWfchupV2cKgzRSmLI7ZpC3CZm2RUxI4YzZWMmlPNfmzbUUf7ClX24omK29h2BYqbZ16P5EMXmLfExiy+OzlxqgYtCnlz2paMe5AooKXzUiMhbGpKbNeoen5/Sn2Wq5VeXhsHWRsrGKKxiZp07gcXkfWYw0qfiv6GT13U2DAto3ZvC0jNlG1Np9h+lF9SxW4TouxGKz+sRZX0XV+Nb6RKzFV7SocN0S8y5m4HVQMXDmOtVb/zj0Z2NsxZCjOHc2Ui1DnLSDaucXgesybNd10m5gnBxYemGTzhk2y2QKjDi8YfVp/CozHi40+fYwAEw3mmdZXBl6Yq/X5BD+V7MB69NPEUZsfA8yLz8FfM/upZHuMc4aBKX2YJ2PJ2PT6YuL9+Wvg2N8r8sh4rJmbqTkwWeUYYxBjjo8/XoBZi74HnvoQd40ekvXx+f1WMF7AHLlOPJ/3K8f+OfjXOT43IOMlxnjkEdAHlX5/rIC9yJiHP/JR5oMf+nDQh3OROH7fyZCbcPgGrYY2JwYG6pzZa/cxMLqJOj7IeOoMG6hptDk+2pymaHn7hQzKUvR5E5sc+50ysViwgQWzri2hETYc2tqCNn4eaHtripbXR5szBNraM2QvjM9y+jNuhwUmxUSfsCnzkb0wZl3VLY6zyls2b/NKW1ENNmyLuOpaB8xb9Rm3GaiwZdWJjVvBM3C1iltSDamwdQZudsxVtjBtQ40qbTM9aqiyVjSotBXVCI1bwq+0LSiqanHsV9kCVNbe2+QVtsWKW0Eqbr/hKm6psjbWQoWtAJNWVIMN24BdUFTVsmlbVnGbP+O2pOKW1DNtXeXtLJ5xm1fehhW21c+4/SVzld0bman2s5dh7/9xgO+CMrQ5/cLmaVecyVmKNk/QxjcnN1eLiAHbBc4VGqrzgI3SMkIDdV6wgVrG2kLgm7YxvsE6KM5A7UJmvnaBKm7FuN1rjlGNw4bsUVSY+tv078+AYafpTPr3uVjRev0HbHxA1T2J9rxf5od54/x0vCV087B3/0GrB+eme3ydIahEBWef81vmjKf8hko8B8YYXlpfDExF5I/bH3TaQwrrAOwDc/DCcTwvBnlQZeq3xeshL/bstwFtX1hbjv8YFbdPezodY76/H8SSE+2pvaI9XttfA8c4B4n9vFDsPbw/1rP5qLalc4j6cT0oZ3Q/IRf6VjHX9svaEiOXxBjvj/NNXDF8YQRjj2yicj8bpXyMeb45DBBLPv/YxzeVtX4xoHH88Ec+2hm3+Vw51mKAqtzczN26MRmvJVo1H8cUr7lrS7oexbPp3xLste+LRTNsM+x7xxV1zFxiuw+Ku2jGwYHjKvpeb0Fjel8O2vcXscVpo3hBwJ6X7feKruubp5+wcYFUuzCuflR5TowL3UQV8DnjYxk7lOrA7NTahX77YXqiLaX+WEZr89HnVK3TRXdBHagWnbSr8vNvcW3vvQc/mbyPTNqFecYtmbQbZrBn3GbAlBXVOJrgxBwYtE6Lz7YVZXPWVwbVtGHFbch9cmDQZurM2YGecSuVt2XPuM2VK20ZVNVGFbcBrrK252fcCsln3GbAnGUNQVVtouKW+KUcGLWZcqXtx+1e7mPvP35eNz9vWoBpif+RgjWOi+PjNoyrRgxYGe/HkqdELVCmOD+kbb+0Q1NU9bMBq2qdfnscmqRdY2fW+m1B3D6/bwa3A+ZrV91vjnOqxrGRi/64zWeQft3M9RED1z/uP17rQcuh5wTvHlapatYed1PLrg5qyX42eece2ltvxm1XtLyCNn5R0c6vCBuUGmRYzgIyDLtwoCe03D7anIlxc3AcONNsVsBYhGFX9ornwKzDi0zFqC8GxptmkEqO1Avz4jkaYiwiH8CxmKhiqMbrYw4MTH+egLFQjIuNW/kZYqifE2tIn4A1ZG0cy1jgn5u/B9mT9KENP4Ec3yM0xqrMi/vPfqkzi6XN5oIJe7p9v8jwdDHGINcD7f4QQ2U/L7Z7h5KJin6bB/jGLcB4/tlljpsYt8gP/H5pl+pfGeuTMm61fJpxm5uQE93AtVyfP2t2HwOjGqnzYC+btxowTccCGX1dsOdDht+gyDplaPO2HmT2dUQzSceItvdNif3u3CzAqFvat9EByTHRB0VjcetCxmcJ2pymaHl7x35nwHSc6IN1Zi9MGTYuXrhnPxm4/yuotI1Bda2GVm0LUGnrdJXN2+AZt3bd8Nm2dZ5xq8HGLaFV3KrVtiCsuM1xz7WNgFmbesYt0+czbtnE5QpbIVVxy0iFreBX3M7uGbds3oYqFbYxYcVtTLHS1qr2jFuYt1nFLY6hGmzcFvGqbAvPuPUqbUWpwlY0hytsWb9qFYbt2fb64/OlmbZ9UF25K8booqOdWwgbm/PGN1qHYRsg87QLnsHaEjJKyyiYqPNgnzm2CjJGh2ZteMgYHRpnoHbBma9dENM2+6nkwFjc5x1TvD+KvWOK0e+baC0hszCVH8fe2EVHPT+JoWirCc0fIIbuO+Dwj9vEXUnn37t/K8EVoxP9AqNt1irVri+xxBqPhxGJdmgqn6jkjdtPtnNT69XJ66s/H3mlHWujPR6PdhiCqfXRh3FP/o2nEZjn7zfen1wPPw/aof5+RKUfsX/dtbz5/PVMef46zdX6ocjnx6jERb4znvLULIYiRrvEPIb3BJV2gdvSMeal+uJ2f6yP7AHH2hi//+GPenT2HmnrxW1kWheMXI8t2S8mbCr2KMxXjNSZI/sYUNfYOMUx6ZziSux4rkhrh8yv0lLWcvO2veYm2pBKwKAl9WJ3XDfPVlDCfh742GmTmO6PRdAthP3zfXOwYZYsbTUzb+kY5mNCu/ZXMfT6nfffn+4mXR9O7XcOjgOTc9axBYYnKleFOA7Gt14vz1e1XpvYB8bjFHeNcV+ADRvDeIcJZPucEcTH7lmcTucT83M60RaoMIt+S/39to+T62s6UH/Z/hYt1s7P1zr5tHmkQlk/5eDPEz5fwefNqnwGyYCNVYhjFV5HVNbN20N2KG0+c+uHOWuVTFpV8Z521eFhczU2cvuO2XxNqRi7Vf0MTNi2MRu4ZcA8nbfCvGX84xCYq2XKtJ8P7Yc1jzDGM3vDCtn+46KR24a9DnsMIzZrk7iin4zb/CeTsbfQuG0FjLQeUHMLyvhFRT0/H4ypwBmXWx7V4NyswBiamFgsYOahulXrA2LcjoP1TrDxOiGQ8TjB7KuBNk/YB1Nzq3BQN0pHBptl3Vix51uGNidA9jFyYEiWoc3Z2tj3vgt070yMiv1sXm512LAcGjYUy9HmbVa08+8R+50TmJxzIzRCi2hzmqLl7Q/feJzoAzGPYmz73jFxkCsV5whXfGt76xdt7Vmj7WtR0c4vo9Z7qsxrAtZIfs4Ez7gclI0StPEa2tw+0dbMYfO1K7rZ2iuByToUvpE6T9gcTUJG5xjYV0rRHA3R5sRo8/pnrRIyWQeETdSuiDHbksy45Z9LZuN2336z15mKrRXGUhe1IE8KGVM734hVO78idpwYtLFa9g4N9kvAzBi7biVgEC26rpu1A/Nn78RMQJXpm97yVrUPXHbFFWr7fNmYq+4B9nOy8DqRAfPVV65KLsblbMwdGKt07FTiWLv0jwkYtHTsVGJUw4qxyiZru3jFvq+lVMxH3B2bZw25hlS7Do7LtFaeza/8/jJoaxNTrgVgxX7mtwz2z/dFVzJfDxyyammrRGjmDkFmECdUmzNbDpXurzedKTByc0WVqtY+VL9utOYsgZL5VfmhWt6+IRPErjVpH6qZSBNJ9h0i3e1Url8e99M/MVuq3p+u9JGfjEun7WKL02RcRdX8nuJyPAPXqcS5yriUuvmDAgO3StmADTTVrvQzqKDtqmzAkraI2bytAibufFU3c2NgwJYo5UPsNI6r5pOyAUvaImbzNg1VyA7N7jUCBmxBnbFb1d8LXtUt9nUMG4IhZDJmRl6xP4bHl0AmWwlunU5oeWO0eaMD+xwB+2G0dQE5+kDLvVVZHxTN4AxQ5vSNum4LtNwBGDMw2r58tDkT8wbm6TzR9tQ/ZK4Ojf2cTfRJbqAOhRiWE9X4htlmRzPdJoZBu/5N0fIuImQYTowG33Rsj59Hh0zHErQ5i4d2bYpo59+IfbMBJmcafU7fYJ1S1uxehsadb5pofIztJ8OxDIyZqMnGYrA2EmC4dULJGROf+0Qa7fo1RX2ffDCmI9q6PUOmZ1fI2FwE2HxtS/bTy4PDJuugrKbxjdkusPFZBpuWabQ5s0bblwIM2BTaeB87Bubq0GhmrVAwWIdkN5uxbVGN2KYUjNt9igHrTLM1qN/eEuSpIjTrmFS74Pf7uVL4c2VO3OYzl37PNF2DxiZqnf46lM13x9RfQmX/AeSyQAUvLu232nl94YDHwsbO8Nsfmn+9x8SGh8Sur+/14phIre9rWb+Hsp6YV4h9MyumTn8pB90eoYIfa3O2KgeBuyZyfYJ46H4cdwPGKx0fPOQhMWvRqJ03uJc1nfolFiOaju33x9zi/aHJOnQ8ZmCcomrXN1JnGtv3BfjVsWpsx/pto4wzNjwV4jETs8G//ppW9NvPCIGYjp1m8YL0S3sHVg8csjjNYkc0ti1Z/iR2nFUaDxWyeEH6M21PsfI21hpILsxxOTdtTOC8fU21t+uHwYtjmJ+kXiwGcGk/tILS+V6c7MdxZ1A5y+aoVM8Gcayt+rV1U8j4UDPTMWHSBiawqlN/GB9aCDSzaqb0dK3U3MICvR/jQLmGDZjV/T8r87Ya3H+CxL5ukIE7diVUQ9dR1e/M26E1M3D94yw+GLYNEot5KwZum9iZtyVaqLqN4qr5tdTLh7ZBYwJmbNMYxq2wzzuO4mCcEhMl82HeUlzUjKV9ZpszWLdJHGvH/q6oRmwr+GeTsd/MuM2MVhhnjsxY9A2/FiBPFf66bdByxmjzxoluRNZGeQ8C+lijDr4h25Se9kjGzERNnPGURJszBNraTdByhsAU6YKWM8TuQwzBFDX3uiXQrs88CO6jFlAe37iN2bD3z8RisZ6Zp/NDNzAn5gMZQBWw6bQIYK8l7AN23MSMiK7/RCd0IzVHm9MULW8MjLiJQ5kxWYq9pqVoczYjgck6HGKOtsZ+Z1WizWuClnMTIoajZtgKPGaiPrrZNCao8tEZN3Ojp2tVrOgM0eZM6GjXryla3r4Zp3FbJDNFx45qxjZhnc3ToQmM1HngG7HtIWOzjMDAVNDmNEXLOzp8o3U46OeSE4hpuwjoJmxzUG0L4xY5j8mNPM/k9Cv9XJv0t1KpHiwjW6+l1qVuvrnqeje1kGlZokRZns4gT1e0vM3Zh2q7TaFsDg2pVdTN01W7UpY/M+igHaB8pXqIjtNaN8/mV2LdXZd5KRmrOG6nGTZfqY6AvfZ8J62nhP2+mLsesPuZIDQzdebY94Qr7Uqw40avGYcS6sypSWemTOr9qFbKYz8ni66LxJ6Dh0t1dTOo/TMRukLH7ZSw+VYOpPQQmZZlysTzFlHLWSbYXB1cFwAYuJ103wYdD6l97IPMxjKdaMAhx+FxK5lf81Wi7n7L1M8XQ2NAjTyTMtp1rIvkqL1eC3Vr1b3P2usGHZNBqyrGVOhCwAY0DNy2SqiGbp+g8naDDNyUZubugMrPxO2mBEzclBKojC3TbsC8HVoJGLAdNHvmbanKOF0JmLQpraDwE89DsITKW7teBwUwXruqgLzHwFgVYLQynnmG46CvBYEZN1EJXfM5Qvtgs7A9kqcLWt5mwPTcHGyYfQcGBmtUoc3rE23NNmi5HTALZ4G6Lw9tzlYF5ucYgFm3NdDfh4kiZJzOmwO6gbkVGU31sd0HmZ9l2HETE3NBux8XjkObB/vn7uJzODdf20KmJIzLCb4Waci43a+bmFsRMje7sG8GaOv6aHMiJoO2Tw4tBjCW5gz2oO6tCZKnDG3ehI52/Zqi5e0Tu4Z2P/UPjMky7JhNwUZuvraFjNWhcQZqGXtmAQzY9mTGbRmrw0Pm6NDAfO3M/lIyY7YMGJsdgYk5KEvFCtqm+KZrH9BPJeeGbW6Y7RMOwvzyjbQQjNHahbr92XoF1pU2n7w/zi15/eMi9fPrDNGPtm5kpqV3HBPPKSBmYWAexlT12/PphJbTp87+NjMwm7R2YerX24Uu/bYPlZpVUI4E2viJjP1Km0///Yd7iamy1sVyzHAcj59HTOataIqpX2/32Ku0+fTbb++fiL1Km0/T/sAkjeMDI+ufM3vse7IHWoJuRglj6YdWsF8h1S5M/Xq7kOpH+0QGfc6Iw94xxzATq/rzXDb28sKElOOy+X6c7kdfEazhH28q1o9EbVFc1W+Bkau1wbTMTd4EW6A/q7gl/OM+Y2/NiLI+IP2Uaz+w+QRq8+IYrK21C1X9liWlzaeqf2hS67OJW25EsykSm5A+U7/eLkg/FNWBI2ffYTKnfMNt1jGh7W1iogp77/R9P2pxffjzVIjFHPWPNebdb9nZIZ6deZuzoxCvl2D7YbqqfaBBf2bgdmN7SZw0c/3jjmybQZybuPYYJqxv6gaU9AcmbprjkvF+OiYDNjZ0BfSVoBqtfbMUxvG6x9XoD03c2NStGfvGrc17TNK0zUy8vG8o8jW7oeUWtPHjRK57ezSj1kebU0A1Qptiz6c1Wr6maIbbxEQPrPuGWIKDFWhztigwUecN7wXmZhcOseGXoJ81umL3Yu+/iUUjNFmHQDMoJ3TInLXvSxIZs+AEZtfETNDehyZoORcS+iyFZmhT1Lwe/HnV506E5AYrTNi2+Hl0yNQswxmGW4HcaB0Gf60uaLkD9k8ImlEbwqZvGUWjckIH10oxmsbGvtCkmhva3hqwVANt3oSOdv2aouXtHe1e6hkyO7vimZubmXkYt0XWI7N1pHgGbYrAsNVw5ujYUY3YvskM2hT7dbPWB8ZnCb5BOmZ8I7Y1BePWGYakkfG134+lfyi1yHqtdOj8M1WYQ+2V0MxYoVaeDbN/vYvaPOt2LUt7rbNOuTIwZhZdZwMMxTIdnIr162oVYhZ208N0rGnX+VtON0YC7ak9ulEaYdcZhU7Uhk33eSr2cYTM1aF1EYBxKiqVuTON7Z8z0Nz00WIxhcaO3e8B7LlM7TgcTzq81no/KnRifNjv1z32e3yxtTtciVulMHDTCvM2NngXN5bzYQ1i+3meCan168ZaTgU2cVlbxfsRW9oqUZK/r7hsHxWQMWvH1kLGTlqizsAauWbm1zy1r+tFHElr3TyTWi25jnW11jrdtNb91Yd6wIiN21C5LqDK1o+ljU3csasFJmxbtfDPJg+sYtL6x1psKVbkjiVep2M2clNq8c3cOLawidtBfZMVbUPGljoVum1i1cBVDN10RS4fs4lbVP5JZqtkjjodLO6GasS2ANW3mXG778AB47P/wEHmoEPioZH1uqDlFbTxBdYHB4ZmGdqcxtjzJcM6gTqnwEZHtJxt0HL3CBmjiwAMrqHR1o3R5vWJtmbEQTuuDDXvSNkoQRs/BNragja+DRuHSzlQA21er6xvHWAGjh+YlhOE/V7Tq3Bz9h2016wjMCeHR9//osHm7RbgQDlsNnZE8iwA2jUQtPGN0a7PzDk80Tf2z7TFRzdjG3EQ2FwlwNScNyv2c1CGNmcIYAgODpmwJWhzZowYpKXsr0Cb0zfaug0hw3FiwXBGVhJtzhjR9t4Q+1nthM3BldI6hfUUyOgrQZvTFC2vjzanMdr1idHmeWh7mw/6+5mxrwotp4c6J4SMzQ5wHqyVhsdC21Jct8BaNWyuptHm+GhzQjbKIVN0eDJjNYE2xycwZ1PsKYeM0Qq05+v6+CbouDlQCpmendlfTWSSFtDm+GhzekYzYdtAP5tsQc5j9u3fb/YfADBtmQMHhYNRbPu9Y4pn0n+wJusl2H6YlhaokMWFXI6yPhD0rxtUi5aBnwH2zeI4Bn7+ecRkmGqG2SbkwPohc2CjBPTTOB7Lcxy2P4hb90drtoH22XZ9YRH683PtEkPLjEmszWahHPsxjMQe+g/lpiQRx5ZO+Wv0ByT3k55fb/3D5qDNdfDQkYJiDY51DohuCMi92TUHhvI8YugYgIEbG85ZTP2RwdmC8vxebFH73V7L0NZtA1fgFuO4XYf3O3cOArsfqzBAxZTO43H043izAAN2KPWB6ddGiQOCq2zONNU+h366Rzy1bUHsgPm08Go/qxM9cvBIe9YZGJ9bQukeLFF7PTF2ta3aPHVYsZ97/Fy3GLWx9gP20w2/EradIs/xRT2Qazk2zwiAubspdD8MXFEhbi/pt/etmrdvTa2f7SMa30JL82d9I+invVpk33Fsx8AYTWs0Pp6/YHH8Por6wHRMKWOvTYbEMg4VpUeSmlea4tipF1fNr6X7+VjLz1ozT2dNrD/DuGqfAOYq5qR0aZ/N445Jo3jZXu8yJFeGnd93TPskeD1NebxVmt8yxnEFMHDFjM7jWMv6JU9C13guq8To92IycIdUZ7AiJk3EVXScr5m1jVk9aHbCpPWUTFulfaz9iLevHLDHB0jJrFViZr93HMYYX0Y8vhjjuIx4fCruhhjAdAyzNo6XYbaWIePKoZ+IXtpn8x4wx7Bpmxu3BwIjVQw9v20eHDQHa7GeJD+XIbHrKGZtyMFy1LyzBuehG52bDTL0MuNJAf00bkiiNdswk32OATnXbmhmrY96jXsnNM10tHl9oq0Zo81rghi3ZRRNWx/N1JwYDs18nAvr5egGZTO0vI3Q9h1D67RH27eGNjcH+5gvbN7qex8VB8uBaTnBiPEKE7YtoXE7XrhiPA1MTzE+Fxk6D/tZnegTNiW7ANNxSxDdjwXs9ewCDFzdRI1h41ZHG98GNl/bwuZrF5CjggPAjh05YggtPjACu6DlHAJtbR9tTlO0vAuIM2hToF+dt3Bo72ERNv/KsNclCfrZDJxYFOx7tr8bmlnrgzFsgg5LeJ9GKONb4czTFGygDs2hcshYLYcM0k5sVKMYrQHanBhtnodqxDYFxucmIDQ/26GZtT7anJDQQNXR5vloc5qhmawhmlnro80pctySZ9ySUZsZtqGBd3DdGaJjUGI9rTBoq7SKunlKFMbtgQ0YTLr6Jm5s8tIYjyzfzGNnksF0WXfmy2ZVj4NzjHFMBlZLjfNt7ljOl7VtXK7d4ffF4rQYw5Qs03j8ALGlah+d8pMiTx2Or9CtAaqMYVTTMQzrOcVjUN/8xL1UFnelKn9ZjGPas6L7rfrzWrEueqhcq6A8dj/z1AUABrNoGfzs4TTz7z/EHBxW93aE8hw8TIZhbISOKSZwXROK8bppt3is2c8rzELomtMp7hCvH8+x1VbxBsd7N7t6wMTV4sDk7QSM3JSysVqmTFWeMnUcbKf0PGDLSkclE9jeZylVzVyVw/PVA1YFtC1oDGOrixI97odQ4lr7EDqsV7XOIigjxmZRU/MWUYmy99Me1wJjhUJ8vOVIiVoOeBTiqvk1NMjnHftxnTxd9IDVsvVnFlftMzZyQyiHb8RqsQX/E1GZZpWvdAwjtecYWgGMV8xD9Ww7PUzH5WrZV0IP/TBvcZzWQ3Sc1DU2b7sCA7dcN1j3Oi3E1fNxTCZtKoZ569E8Xqeq1Z17Fl81MzcE5quooMVlOHPVaTJO0HV+fcTE9Y/zOPtJ5kipL4vdz0N7ivl57MYucd7cuHWVrWTYjpHMvE0A47Qrzrxsi2+CLjbOtJ0gYBhOjInDnWBTZf7A2KxCm9cn2pox2rwmcB42BieqYcNvBGAv84T2od9Ti4RqoM6NI3PG7mF9/Ggm6KJCBusM0AzZumTm56Jjz0MzQRcRNg8nxoBvXk4483JguBq2HDZgu2DXOtgeMV1hwLaFzNkKcnN05ByYmJgPgam4hZHrkYLG2c9qN45MLBiawRkD47ULnAfm6pCEe9ZgYxXaFsyfAfvKYRO2jEPVrHWHzdMhYaN1WGB8zgKYq8OiG60+bIym0eaEsPE5fsh4LUNM11KcSZtEfipZjFvNsF33DckFi2MDtkG8vr5hdYNUaBLjGFW1Bz0kjjXVT7hcc4P2wSaZGJexbsp+Mqm8fhhOG7mBNTESNo6498Vp0xhKuWAQJdSOk8rRjCaxyzPhcbgqRmWtx5aOcU3mrzBQNZ1F/wEXLwT2OyZTwYthWCIm7RBXUTqf1I6bsy4GMHCtrutKpqgdt8+OG71irwMDwxJrrdG6LZRyHHEG6IiV3vs0mdlmr/3ic/ykvelEE1B9W6WdsZ9TGKcpnR3H52q/YxrFVsm8FWx/+9irtI1iGLc4ZgOXGWV84LCLnUoc6+j7HQcSWrs/ypvlT7Q37sexokLl/IQW+tHmqVC5fkJ777f7rETGpXSzYM+n4v3NzdeU1gGVnBMLhb03+NipxFCpHO6ompE6c/YzMGHluGnMBm6aeHzTGMdk0JYozFkxcNtqZt7imLR5DHMVxymtomo+tBYwYMXkbRoT62YXDNwBtWji9h/jObc4TirMV1Ghabx6gKpj08pjdGXK51v1TdhOcV5h20ZRVVuqYvAu7Tc7Vg7CuD3IZi0ZtqEJuu4dbwV8Q7YNuem5GfAMzC0NDLjhWe+IlnOiPYEh2wbKAxNqoj4w7HTWweGtgX5tth6xKamhzWuKlrcxGwOjramhzZ1oDJm361x9m8R+z8N0HD12r0MDA7YTyLF+ZPRoZq0PjbP3zsRECBuOE/VQjdbeOVIKm6PjJzdeh4NMl4UAxtBmQDu3pmh5+0RbU0ObWxct30jJjMsE6vl5aHMWFe38PNigLeNIDY6f2GSsVMAGbTmqkTpr9neHDNQStDlNUatwPdh4LQcGbQoas8bmaBcy41RBG6+hzW1EZr52YX14AqN1PhRN2OaQMVqCNidGmxfgjNF5Qz+HXIarugXbYdz6Zq0YtesbG5aRKe3LUqaRkVqA8iTUsrFxqJMC3QQNWT8EQ1BXzjNnxX4iI2srs374iL0mFtKB4q70vZ/Rxj1g88CwqVIG90C7mI04UQ0Zl1IeU5zn00d/nX2kGLL/BCXeCqTOP2a4flT/op9V4liH7T+Ifhj3OE6pJTW/7vpE1ToVCtMUnxXfRO031tcNNBiv5cM+c+Yab4hib34c67z6bXsJZOzaa7oQWgKqcrV2oW4/Vffa9Trp+gJg74/9HlqcYe8jmFDQxYxP4OMkU7/eLnj9Gzi2dNQ1HHts1njNni+OK7Ule+183cyNgYmrtQM2TjsrVc7afC0VoCpWV6zRQ/9BZ+KOXGGg4XjRlciuO5Tfk6Km+jlH3fXaKqGuz1o3T6mW5MeYcfTzXtmYlOMwljHlmp6/KHHVeWbYzysZsE79mH/G3d4/mWqcwIafPSbTz2ken1BJ1fyq/pWDxZwBtr9L/jr9aM/Wmyv6/mqfXwGbU21PQ/lmCu7ZqO3A8c7A9TVFqh/tkUGLtiCWcfFcn7L+0AhWgQEbtFXFEWLeduYQ65rTQlxF1XyrMGcRD6i79uKZu5YBNTNv5601gMGbUs2I9ckrfBPzgTLPB+ZtXoHbLiZW0lp7/oqNSfWYDdz9NM8Zt6F5m5mhZObJ8Zzx95bE7rctdK7dEXO2LVrO2XPIwDBjE2qCzMOhIQOrA4eAknfTIefaDZga5ej3Qn3sOofZJEpRXDNEmzME2to+2pz5AKNxK6Cd+2whM3AMHKqAxsGAbUuUryW+QaqhzdmKZObo6LHvWwmxgbnVIeO1K+vHjx7fpNUgw9MCA3TRkXNJYj/LE3U5wV6zjkTm46bGnm8l2rya1Ddu08DQhPHaDckzH2A65cdHCGnn2OnBOtixg6KtGRIYQwsMX/cO2Oul5e0Tuuba2j7RnKbUWmMMzOB6MzBKy9DmjBM2vXTYjCynYJhFhKaiAkxVZV4T1Lw+faxRhbbuPND2NgDaNRoVqknagv2eSauhzWmIarYGwJitQpsnwBTtijM9U4gJW0o0RwHm6pDQOjBYBwbG5SKQmaspVivQ5vhocyIy47QLnrmqos3x0eYoSNUt9n1MWGkrsIG3AQ3aLUqMcYLM8+N8vBy7/kMOiam/S4yK0UOkwixjHFPV7KZAM6NyyEQ7jH+QZjON1Ivr9OO4jGxey/yIJ3I2jsCUYd1QYn/sPEntj2Mc57SKXZ71SUemzrhUdMPqBmIcezSJcZzKD43Hq3HJ/FlpsB/v2I/r5BlaAwN2oh8OebSO7XtDsdMtGMNAxnEXPWCvJ2mHeL87Hk51o3Wc2P0uOOMxNU8w++39TmopxtqcZmR5RUvXm2+M47lCezhq1aNFvA9tQypdO6dzi9lcFRUKsb2uZXEVmhk7H2QvVtebxTBZg1jGpWI73oeMWvTZ67F84JBZ2n/I7DtyIrUt7d+g9pUDh3kcjZd5s1fioBh5TiWOtW2/pdY+Oq9fvU6VEsn8ifZZ91vqns9cte35zbgfhieOUyrjxrp/0WJFbVMFkXG4SVldP2pW7Hf36oZVxNDNGNvjQgWzxLHW7Y9x/ajyJT2Y0LJ+CzQNj2Nti5t/YEgtGrkF9juDuETFpPWPtZjYx0avb6oWxij442OKVcFFtHkBkck6BFhj98Bk1bdi4u7Fs2/7j6EETFg59mPPoO0CDFhd++mHcSoGbhetojqPjCsqYNPWM265UlWMVTFXQ2O0itw41YlzZ3MU47Yboak6a7accdsRLa+PNqcxzgzc6pDxeTg0MYvoc2eJvq/+IaNwYkQ40y+BGLdd0PL61FlDmzdrKvcZjZ9YfAombGtgXk7o16Y+MEX7AAbrhGUDnLD42HtLzKeJcTAO4/ZoZ8jYHBqsMwr091LQjNimsJk5BrCXWcFGVQyMll17D5ptK2sGlXtk2FpFHwxc9MdzZg0bQsOjre2jzWmKlrcJWs4xou19jGh7HyUwPsvQ5oyQ3HztgmfIbWJg3MLc3PQo5z4Ey13JDNoUGLMI2D/bYb6Wsb8K3SgtJTJNK6t2o/ExvRi3NSpy+0AzW/skNm6HIjBrNZwxOnbEGO0CjNQytDmNoYpbfsbtjtV1c0xg1oqJeugQcQgatKcU48vUUhjv8mdIe0uFeToGPXTYbBy2LLhqplqMGH1ttYq6ecqUjLojzrDzVdhq/VVUzZ91v0poUqlat39iRBytoV3pmr9q/qy0irp5dEXVbFcl7OdN1am/eX9v2Pdniyuqb3FMVbiOpjE4oLT5VPYfOj6vxB0q9oBJOt4YBhf2nLOIMYC5BMNuXkr7sPc5HWtaMb+eluQfkR6wStg/l9AGFbJ4Fv2HT7TxiaRCk3j/EY5Jhbi9cz/vGSbuXBXmbR1NAGO2SscAzFT87HNXrQvGk1m87kxjp6iw3bV20Nxt+5LZvrqPqm7X7HXiPq7KrQYVvsOimUBNIKMOeyXlfH68Z724ZkycsynZWl2Ico6VOtdzDGh7nxiWFfu5IwO2lZ5glSs2N7uqJucmpc716Kw9AAM3qc4YXVk/ynrQacN4FsCcRfUtqx43AmZuSVwwVfcdzszfKq2idL5dp2AYR/HQ0B5gsO5zRutAyibxhjveUGJnwHZVy06nMWzgdlWLb7QOEGtGa2P2CFzRG8TaeBWMTQHjls1bgL0fU6iC9YxVxmvXyAzUEoLxYV9o3m4GnPm54MD4XHTIuFWNv4nFBcbQxOYExuHEWFjvzAkTfXJ4oi80E7UNZI524vjhCczRsWKvxSZAjNu5c5gNsFK0eU3Qck6U4AzSUaPtOwTG59jRTNIxwkZqNzSDNgXNWXeGrbBhsXvZvW/d/OyxO8zddy5n+1tdP0waGrQpioZYn2jmT9/MwrgFWt4maDnHyGTcTmiQAdsJGF1bA83g3Iz0aawODVXeplAM0rHim6qtCSpwFaJxYrTOFmeclqCZrX1C66w5k3VAyFgtY2932FwtwxmlXRCDdUCKBuq8iM3aEBi32wLjloxXgc3HQ4fZUD1EFZixMZkjpiuNBXa8pvEcascapO5Y2jUVSvvtMcWKCrPoJ44stHKlKpueZIDCMCvEvpm2mBxS2nw2U/+hIyeYQ8dXYMek5msM0Y82dW8xR45atbTViRFyYjImMzHSVHuqvyw/qJoP9cdX5RsqLttfuM/261EuG7O2jdnApT05prhdrBq5jeF8E5bDUDZf2+pBaFckz4BaNIoHiA+5tQ4d79SL7XGdfqpKPOSqE30VFqHfoRles4T2cQSVmtBirM1pSp5XNL3efGOro+AXRq+ousVxUgNz1z+ebayZtRqoGtXaAfq6weZmF2CYiqHqK4H+qD3Vr+Jy+2B8xjobt1QBun7E4Bm3P7dtl7nHLjZu99jv5qUDeM4tjMYqimbYEMD0kWrTNtqLkajkbaZKzjYU8o5PF8m4rXM+Y9Aq6uaZlxL2OwOQCQttHLOhiSpFMvzE/NuEMZQ50Tu2HIrihe8Pz5/oEMf5sth+Jw3OQahd66Bbs7HqRmvfwFCl4wPpuCucL2yDmTprrQMbrE77jolDocJspeOovUu/M3BT5CauPd7rjmOt6oeWAPOWVZ6J2zzOzNuhtSN5pW2o3IfYmbNJteNg0KaUkJ9MRt4Nc0zBtBXIWOVj33iNCcYmCMZm42EU+kh7S3wDdV4UzmkxyX5iuIzIcGsDmYklaHOaopp+EwuObzZNbAViQ7ANWl4fbU6MNm/WaPuK0eY1Qcs5MV9UA3KiPYc7YnMc7ASbl0MTGq3DoK3bFDLZNgmh4TR7aB/2HksSjW9D5RqjgU3HiWro55LLKJipQyFr6WhG7KwhY7QPNmaLatxuMMcurdJzbvcfzz+VjIrbsRm3XdByNkXL24S+zEwt99jQ9j1GtL1PDIj9zhBDth0nWI5uCXxjc7OjnX+vwBSNTdbBkPXawMbp4MCgLQGmZ1fyfGH7bqq+nRW6UTtTMsN1YDyTViM3ZjvgjNYUbLx2ZI9ulI4NNmpLgDlbCsZUA+MW451xC9PTERl4h4/4sfQX9bAbk1IZJ8doJ44coTVkndT8+soVo/NUAufVUlH1Soq2OSlVPRJsnkplpB9nJhpMVt9UaxAfPgEmgdXjnUYx0SH/RAiubyn+dZ8j6t4Eu8eME050x04bxIco36TjUfvelKl93/KK0Jaq5fWUqMrjjZ+Xlu6vx332AQxH7GfS7kocCc3cZrHNcwS5PLZqjOtiKZi5HlX9GfbaZjSJ7TEMXGpzDBETMEcHVpjZovyT1PXjg8SJC69sZsIEm7faPVUoUzdfUavyj0aP/wWL07nFjiPecYv4wNBq18NxRiE+MTdwh1SLrKUpjFMck4kaxVl7JTKurTrzNqG1+w9B+wfPAS60b9j1PMjApT3BvDps7r5zydxz94pZcYat9KH6lgzclFKeo4NqPxylfElcP8amtC+q1qnSRaHu+cxbFwGYnlkFaxyv63PGyGov6ObfZmMPKlMtm10BzFWcs69C3K711yU1X9NCvzNWqT0zaGPtCanAHShWzVyPJRiuOHZajH0zVo+X7Zo0JyM1fhZwBW4cz8LclWftLpGBOz9l81ZM3La6Qcdk1GoxtAd8I3eU8R7dzPUJjdyDFbHPRhiTgXvQrnvIHLO+vm4OHjxoDhw4YA4cFA5SG7UTfl9MPjZF0/FbHb7m82S9BhvmwHo3DlagzZloB13TjUPlRHPmQb19dsTmODAxMg6XY9+37ih5fdQ5Edq8WaPtK0abN2vsPvb3wuE5ou1nYuE52I19wObphM2xNhM2FgBt34vJ3lFw2O4lDfr1eU3Qc6/Z780MrX/W+PuZG0d6Ye+8sddzzwzg+zPNqr3/RsGBjcVif84K2LfOxwfWzXFLq+Zf/+zPm5/5tz9nfv64Hea45VWzvP8gsbJ/ncYsp7A5FgE65wOH0uw/pM6bmBgDS/bzWoY2Z2ws9cahLcPy/sObHjnX3R3wr1mSfd3YvW+jBhjXkbVhCSooUziDKgX93GwFxZz6uLlC5hhMtOHYCc2qLOfH9tUD3VnZPzjbFoHlffbvyVWsVaDNKXLskh1rwXNuj9nY2DBgfWPd6jqpIH30U8olimpdHNfRQwWdDRsb2IOu1G9hjc8vvy7U5uLw/N2xn9cDP6PcSA93VEsX3aA8lk6Kn1uu4vgSjtjz4XEpZbBel7h6nUoNqpR1cE6H3Lm105L1QY09VOPncvQdq+vGeOML+fxxJyRiqxX9/FPa8c9xx+3D9tM+3P7CeCv3471Dv9Mstv32mMYX1M5X26N+l7MMjAveJ4oFtLtxA2oVeMbmutsPVMhjfV4beC2maUzY92DQ2KPrflMxtAx/jr5feY8QOw3i2fVThSP1M/OItxZ4pqsgca54RiyOWSWOtVs/niO7GNj9Do6s46u/frf+/Vb3i9rrz4o2P4ZaEko/Pw3tgOTppFXYcaKF+ejT2ueiR+euzImdNf8Z4SE1Dao4qdrUnhfHXDkaxA2gylOVeL0w5krVbnAeQR+DitRyPd5D4lgrWHf4x23imKzfN94dB1jXDtr+/YfMsTuXzf/n393N/Jt/+3PEz/yfP2t+9h7HmZ171ux5Hm/2HDxEwPwlY33jiNljgXmNY17L5Y7XqxHjGbukJTFh4+y4VczXBFWKqsb9Shzm845rx+X568bp/D3FOLbgPWqv9c9nrrHb8/Dwmjr282Q/l6tO47iWWvTcPeKuH9EyziqFbYzjDC+u7j8h6pfYap/9VXScj3Hzhvav7C3DnU8Z6jwfZY4PX7/FYOXA8WbFnpOu0h+Pi9sr+mcAfr64VPcfiYDJHrfVZwnz91nd58x6VwmaZE1pSxHnq5O/AMx5T9eiuEs/DPO9G2ycW+0aJ9UD5noc14OfNcsq1I9hhrOiQlSPmYPecRyz2d1FM8N8MD1gdqwmKOsDrp+M8D37nSnuqe0PYssOy8696+b/D5uF9yGBWsBeAAAAAElFTkSuQmCC;" vertex="1" parent="1">
          <mxGeometry width="1168.1079" height="60.82" as="geometry" />
        </mxCell>
      </root>
    </mxGraphModel>
  </diagram>
</mxfile>
